<?xml version="1.0" encoding="utf-8"?>
<!-- Generator: Adobe Illustrator 18.1.1, SVG Export Plug-In . SVG Version: 6.00 Build 0)  -->
<svg version="1.1" xmlns="http://www.w3.org/2000/svg" xmlns:xlink="http://www.w3.org/1999/xlink" x="0px" y="0px"
	 viewBox="0 0 240.391 226.414" enable-background="new 0 0 240.391 226.414" xml:space="preserve">
<g id="Layer_1">
	<defs>
		
		<script  xlink:href="svg.js" language="JavaScript"></script>
	</defs>
	<script  type="text/JavaScript">
		<![CDATA[
function notify( ref, type ) {
    var event = document.createEvent("CustomEvent");
    event.initEvent(type,true,true);
    ref.dispatchEvent(event);
}

		
		
		
		
		
		
		
		
		
		
		
			]]>
	</script>
	<g>
		<g>
			<g>
				<path fill="#EA8E10" d="M168.026,16.669c-13.312-2.005-30.541-3.215-49.379-3.215c-17.388,0-33.399,1.03-46.229,2.765V40.46
					H36.65v93.13H203.79V40.91h-35.765V16.669L168.026,16.669z"/>
			</g>
			<path fill="#231F20" d="M168.026,47.872V16.768c18.291,3.174,30.136,8.172,30.136,13.814c3.104,0,5.629,2.596,5.629,5.802v11.488
				H168.026z"/>
			<path fill="#231F20" d="M72.415,47.374V16.269C54.124,19.444,42.28,24.442,42.28,30.084c-3.105,0-5.632,2.594-5.632,5.801v11.488
				L72.415,47.374L72.415,47.374z"/>
		</g>
		<path fill="#F5A909" d="M213.098,132.777c-4.225-4.224-12.777-4.512-19.145-8.106c-25.554-14.445-43.263-19.029-73.162-19.029
			c-0.188,0-0.381,0.002-0.568,0.004c-0.188-0.001-0.385-0.004-0.569-0.004c-29.899,0-47.606,4.584-73.161,19.029
			c-6.367,3.597-14.923,3.886-19.146,8.106c-12.045,12.046-4.393,37.98-4.393,37.98c0,0.695,0.555,1.248,1.241,1.248h96.024h96.027
			c0.688,0,1.244-0.553,1.244-1.248C217.49,170.756,225.145,144.823,213.098,132.777z"/>
		<path fill="#F5A909" d="M143.329,14.193c0-2.861-9.302-9.327-23.238-9.327c-13.922,0-22.979,6.466-22.979,9.327"/>
		<path fill="#231F20" d="M216.016,172.004h-18.505h-39.844h-75.73H42.691H24.429c-0.729,0-1.311,0.83-1.311,1.861l3.521,8.496
			c0,1.078,0.562,1.967,1.252,1.967h13.404v26.131c0,0.854,0.625,1.549,1.395,1.549h39.246c0.768,0,1.393-0.694,1.393-1.549v-16.332
			h72.936v16.332c0,0.854,0.619,1.549,1.404,1.549h39.844c0.779,0,1.398-0.694,1.398-1.549v-26.131h13.629
			c0.699,0,1.266-0.889,1.266-1.967l3.518-8.496C217.321,172.835,216.729,172.004,216.016,172.004z"/>
		<path fill="#12100B" stroke="#4D4947" stroke-width="6" d="M162.682,155.443c0,3.901-3.162,7.063-7.063,7.063H84.823
			c-3.902,0-7.064-3.162-7.064-7.063v-26.56c0-3.907,3.162-7.069,7.064-7.069h70.795c3.901,0,7.063,3.162,7.063,7.069V155.443
			L162.682,155.443z"/>
		<path fill="#D0D0D0" stroke="#231F20" stroke-width="4" d="M213.374,147.778c0,8.426-6.817,15.258-15.256,15.258
			c-8.41,0-15.248-6.83-15.248-15.258c0-8.424,6.838-15.255,15.248-15.255C206.557,132.524,213.374,139.354,213.374,147.778z"/>
		<path fill="#FFFFFF" stroke="#231F20" stroke-width="2" d="M207.565,147.778c0,5.217-4.222,9.443-9.442,9.443
			c-5.207,0-9.439-4.229-9.439-9.443c0-5.214,4.232-9.441,9.439-9.441C203.343,138.336,207.565,142.564,207.565,147.778z"/>
		<path fill="#D0D0D0" stroke="#231F20" stroke-width="4" d="M57.571,147.778c0,8.426-6.817,15.258-15.259,15.258
			c-8.409,0-15.248-6.83-15.248-15.258c0-8.424,6.839-15.255,15.248-15.255C50.751,132.524,57.571,139.354,57.571,147.778z"/>
		<path fill="#FFFFFF" stroke="#231F20" stroke-width="2" d="M51.757,147.778c0,5.217-4.221,9.443-9.443,9.443
			c-5.207,0-9.438-4.229-9.438-9.443c0-5.214,4.23-9.441,9.438-9.441C47.538,138.336,51.757,142.564,51.757,147.778z"/>
		<line fill="none" stroke="#4D4947" stroke-width="5" x1="79.828" y1="138.493" x2="160.614" y2="138.493"/>
		<line fill="none" stroke="#4D4947" stroke-width="5" x1="79.828" y1="130.113" x2="160.614" y2="130.113"/>
		<line fill="none" stroke="#4D4947" stroke-width="5" x1="79.828" y1="146.874" x2="160.614" y2="146.874"/>
		<line fill="none" stroke="#4D4947" stroke-width="5" x1="79.828" y1="155.254" x2="160.614" y2="155.254"/>
		<g>
			<path fill="#FFFFFF" d="M115.517,91.793c0,0.688-0.555,1.249-1.244,1.249H43.56c-0.688,0-1.246-0.562-1.246-1.249V57.367
				c0-0.688,0.56-1.25,1.246-1.25h70.713c0.689,0,1.244,0.562,1.244,1.25V91.793z"/>
			<path fill="#FFFFFF" d="M198.12,91.793c0,0.688-0.556,1.249-1.242,1.249h-70.701c-0.692,0-1.264-0.562-1.264-1.249V57.367
				c0-0.688,0.567-1.25,1.264-1.25h70.701c0.688,0,1.242,0.562,1.242,1.25V91.793z"/>
		</g>
		<path fill="none" stroke="#13110C" stroke-width="6" d="M185.608,93.131c0-9.027-9.754-15.581-18.487-15.581
			c-8.732,0-18.476,6.668-18.476,15.581"/>
		<g>
			<path fill="#231F20" d="M28.247,86.558c0,0.682-0.549,1.243-1.236,1.243H10.199c-0.684,0-1.248-0.562-1.248-1.243V62.517
				c0-0.689,0.564-1.243,1.248-1.243h16.811c0.689,0,1.236,0.554,1.236,1.243V86.558z"/>
			<path fill="none" stroke="#13110C" stroke-width="6" d="M18.601,87.801c0,5.763,7.994,10.417,17.886,10.417"/>
		</g>
		<g>
			<path fill="#231F20" d="M212.143,86.558c0,0.682,0.565,1.243,1.241,1.243h16.812c0.677,0,1.242-0.562,1.242-1.243V62.517
				c0-0.689-0.565-1.243-1.242-1.243h-16.812c-0.676,0-1.241,0.554-1.241,1.243V86.558z"/>
			<path fill="none" stroke="#13110C" stroke-width="6" d="M221.794,87.801c0,5.763-7.994,10.417-17.883,10.417"/>
		</g>
		<path fill="#E30613" stroke="#DD1215" stroke-width="0.2339" d="M173.449,34.682c0,5.866,4.735,10.608,10.596,10.608
			c5.854,0,10.603-4.742,10.603-10.608c0-5.839-4.748-10.596-10.603-10.596C178.186,24.086,173.449,28.843,173.449,34.682z"/>
		<path fill="#E30613" stroke="#DD1215" stroke-width="0.2339" d="M44.56,34.682c0,5.866,4.744,10.608,10.584,10.608
			c5.863,0,10.613-4.742,10.613-10.608c0-5.839-4.75-10.596-10.613-10.596C49.304,24.086,44.56,28.843,44.56,34.682z"/>
	</g>
	<text transform="matrix(1 0 0 1 75.9155 37.7075)" font-family="'MyriadPro-Bold'" font-size="18">BUS - AGS2</text>
</g>
<g id="Capa_2">
	<g>
		<defs>
			<path id="SVGID_1_" d="M197.974,91.793c0,0.688-0.556,1.249-1.242,1.249h-70.701c-0.692,0-1.264-0.562-1.264-1.249V57.367
				c0-0.688,0.567-1.25,1.264-1.25h70.701c0.688,0,1.242,0.562,1.242,1.25V91.793z"/>
		</defs>
		<clipPath id="SVGID_2_">
			<use xlink:href="#SVGID_1_"  overflow="visible"/>
		</clipPath>
		<g clip-path="url(#SVGID_2_)">
			<path fill="#A12F1E" d="M163.892,81.805c-0.393,0-0.773-0.013-1.145-0.035c0.091,0.576,0.67,4.429,0.431,7.487
				c0.384-0.175,0.714-0.35,0.923-0.465c-0.034-0.03-0.065-0.063-0.087-0.098c-0.066-0.101-0.081-0.219-0.043-0.332
				c0.064-0.191,0.34-0.382,1.131-0.906c1.181-0.782,3.159-2.092,4.013-3.575c0.96-1.666,1.154-2.876,1.193-3.352
				c-0.765,0.314-1.609,0.593-2.512,0.811c-0.008,1.946-1.211,3.841-1.263,3.92c-0.039,0.06-0.106,0.096-0.176,0.096
				c-0.011,0-0.022-0.001-0.032-0.002c-0.082-0.013-0.148-0.073-0.17-0.153c-0.237-0.89-0.952-2.951-1.121-3.434
				c-0.262,0.018-0.526,0.03-0.793,0.035C164.124,81.804,164.007,81.805,163.892,81.805z"/>
			<path fill="#7EAF63" d="M167.371,81.437c-0.613,0.131-1.25,0.23-1.908,0.292c0.183,0.526,0.67,1.936,0.957,2.885
				C166.76,83.978,167.337,82.707,167.371,81.437z"/>
			<path fill="#7EAF63" d="M161.463,101.229c0.01-0.216,0.025-0.53-0.001-0.655c-0.094,0.001-0.277,0.087-0.393,0.141
				c-0.176,0.083-0.342,0.161-0.501,0.161c-0.093,0-0.174-0.042-0.224-0.114c-0.108-0.157-0.027-0.369,0.095-0.69
				c0.062-0.162,0.191-0.499,0.161-0.588c-0.075-0.056-0.518-0.066-0.756-0.071c-0.501-0.011-0.767-0.025-0.886-0.202
				c-0.143-0.215,0.06-0.509,0.397-0.997c0.133-0.192,0.345-0.499,0.399-0.643c-0.058-0.028-0.154-0.059-0.272-0.091
				c-0.145,0.225-0.708,1.003-1.581,1.003c-0.348,0-0.709-0.241-1.091-0.496c-0.786-0.524-1.529-1.018-2.37,0.009
				c-0.063,0.077-0.087,0.544,0.54,1.773c0.943,1.847,2.461,3.696,3.03,3.696c0.005,0,0.01,0,0.015-0.001
				c1.036-0.061,3.189-1.497,3.424-1.656C161.446,101.646,161.452,101.453,161.463,101.229z"/>
			<path fill="#7EAF63" d="M159.957,95.953c0.004,0.005,0.005,0.01,0.008,0.015c0.103,0.042,0.196,0.062,0.267,0.048
				c0.442-0.088,1.29-1.006,1.721-1.563c0.066-0.085,0.186-0.107,0.277-0.049c0.091,0.057,0.124,0.174,0.076,0.271
				c-0.278,0.557-0.476,1.161-0.424,1.294c0.138,0.182,0.911,0.422,1.357,0.144c0.235-0.147,0.365-0.641,0.48-1.076
				c0.111-0.423,0.217-0.823,0.429-1.07c0.218-0.255,0.697-0.571,1.252-0.938c0.459-0.304,0.968-0.641,1.381-0.979
				c-0.013-0.005-0.026-0.009-0.039-0.015c-0.413-0.207-0.312-0.949-0.196-1.429c-0.484,0.074-1.306,0.165-1.649-0.006
				c-0.107-0.053-0.18-0.145-0.212-0.266c-0.086-0.324,0.167-0.848,0.368-1.193c-0.155-0.026-0.334-0.065-0.503-0.12
				c-0.037,0.022-0.71,0.423-1.529,0.764c-0.001,0.001-0.002,0.001-0.003,0.001c-0.002,0.001-0.004,0.001-0.005,0.002
				c-0.547,0.223-0.882-0.146-1.126-0.417c-0.244-0.271-0.394-0.42-0.657-0.332c-0.883,0.294-1.234,0.44-1.028,1.107
				c0.231,0.751,1.394,0.947,1.405,0.949c0.112,0.018,0.189,0.121,0.174,0.233c-0.014,0.112-0.116,0.193-0.228,0.181
				c-1.429-0.139-2.809-0.084-2.954,0.119c-0.2,0.28-0.387,0.963-0.224,1.393c0.069,0.181,0.191,0.29,0.374,0.332
				c0.833,0.193,2.624-0.201,2.642-0.205c0.105-0.023,0.211,0.037,0.244,0.139c0.034,0.102-0.016,0.213-0.115,0.257
				c-0.022,0.01-2.183,0.955-2.646,1.22c-0.012,0.035,0.032,0.254,0.317,0.593c0.186,0.222,0.401,0.405,0.598,0.523
				C159.851,95.877,159.914,95.9,159.957,95.953z"/>
			<path fill="#8A4726" d="M156.518,56.071c0.082-0.066,0.2-0.061,0.276,0.011c0.076,0.072,0.087,0.19,0.024,0.275
				c-0.009,0.012-0.802,1.103-0.905,2.236c0.799-0.115,3.439-0.636,5.158-2.633c0.074-0.086,0.203-0.097,0.291-0.025
				c0.088,0.072,0.102,0.201,0.033,0.29c-0.008,0.011-0.761,0.992-0.789,1.868c1.086-0.249,5.513-1.306,6.789-2.234
				c0.082-0.06,0.194-0.052,0.267,0.017c0.073,0.069,0.087,0.181,0.032,0.266c-0.006,0.009-0.505,0.788-0.668,1.48
				c0.69-0.365,2.253-1.072,4.03-1.072c0.353,0,0.714,0.028,1.078,0.092c0.036,0.007,0.07,0.022,0.099,0.046
				c0.089,0.075,2.192,1.877,2.33,5.415c0.065,1.652-0.224,2.669-0.479,3.566c-0.247,0.868-0.466,1.64-0.38,2.851
				c0.838-1.891,2.548-3.267,3.506-3.336c0.229-0.017,0.952-0.02,1.588,0.484c1.107-6.22-1.17-9.347-1.193-9.378
				c-0.068-0.09-0.052-0.219,0.037-0.289c0.498-0.398,1.277-0.357,1.774-0.277c-1.273-1.868-5.113-2.354-5.154-2.36
				c-0.077-0.009-0.142-0.06-0.17-0.132c-0.194-0.505-1.152-1.73-5.84-2.191c-3.521-0.346-7.663-1.919-8.874-2.403
				c0.197,0.882,0.701,1.178,0.725,1.192c0.074,0.042,0.116,0.125,0.105,0.21c-0.011,0.085-0.072,0.154-0.154,0.176
				c-6.613,1.708-6.804,7.109-6.678,8.89C154.3,57.873,156.415,56.154,156.518,56.071z"/>
			<path fill="#8A4726" d="M166.356,66.533c-1.557,0-2.726,0.237-3.29,0.667c-0.229,0.175-0.34,0.369-0.339,0.594
				c0.001,0.365,0.308,0.758,0.612,0.986c0.017,0.013,0.127,0.076,0.633,0.076c0.558,0,1.367-0.077,2.15-0.152
				c0.811-0.077,1.65-0.157,2.257-0.157c0.304,0,0.532,0.02,0.696,0.061h0c0.022,0,0.133-0.074,0.224-0.393
				c0.154-0.536,0.097-1.215-0.113-1.345C168.966,66.732,167.755,66.533,166.356,66.533z"/>
			<path fill="#7EAF63" d="M153.347,67.081c-0.012-0.006-0.025-0.009-0.036-0.017c-0.009-0.007-0.882-0.655-1.621-0.387
				c-0.464,0.169-0.796,0.672-0.988,1.498c-0.323,1.389-0.111,2.696,0.596,3.681c0.56,0.779,1.397,1.28,2.305,1.385
				C153.383,71.346,153.325,69.163,153.347,67.081z"/>
			<path fill="#751C08" d="M168.271,92.74c-0.126,0-0.24-0.05-0.328-0.145c-0.149-0.16-0.203-0.432-0.221-0.661
				c-0.104,0.05-0.226,0.099-0.353,0.132c-0.011,0.026-0.027,0.051-0.05,0.072c-0.469,0.433-1.117,0.862-1.689,1.24
				c-0.506,0.335-0.985,0.651-1.165,0.861c-0.15,0.174-0.247,0.545-0.342,0.904c-0.003,0.012-0.007,0.025-0.01,0.037
				c0.436-0.042,1.675-0.223,2.29-0.94c0.074-0.087,0.204-0.098,0.292-0.025c0.042,0.034,0.885,0.732,1.353,1.335l0.519-0.933
				c0.032-0.058,0.089-0.096,0.154-0.105c0.066-0.01,0.131,0.013,0.177,0.059c0.408,0.407,1.144,0.977,1.442,0.902
				c0.32-0.08,0.587-0.805,0.667-1.144c0.014-0.06,0.053-0.11,0.108-0.138c0.054-0.028,0.118-0.031,0.175-0.008l1.307,0.535
				l0.401-1.032c0.025-0.064,0.079-0.111,0.146-0.127c0.066-0.016,0.136,0.001,0.188,0.046c0.01,0.009,0.906,0.796,1.601,1.15
				l0.104-0.881c0.008-0.065,0.046-0.123,0.102-0.156c0.057-0.033,0.125-0.037,0.186-0.013c0.16,0.067,0.556,0.207,0.889,0.252
				c-0.426-0.948-1.682-3.962-2.015-7.184C172.35,89.928,168.739,92.74,168.271,92.74z"/>
			<path fill="#A97F59" d="M172.909,95.067c-0.02,0.052-0.061,0.094-0.113,0.117c-0.052,0.022-0.11,0.023-0.162,0.001l-1.286-0.526
				c-0.121,0.384-0.408,1.094-0.908,1.219c-0.507,0.127-1.261-0.478-1.64-0.822l-0.552,0.994c-0.037,0.066-0.107,0.108-0.183,0.108
				c-0.076,0-0.146-0.041-0.183-0.108c-0.249-0.448-0.987-1.112-1.306-1.387c-0.875,0.839-2.407,0.937-2.586,0.946
				c-0.115,0.365-0.265,0.692-0.531,0.858c-0.215,0.135-0.477,0.19-0.738,0.19c-0.498,0-0.997-0.202-1.181-0.447
				c-0.099-0.132-0.096-0.356-0.04-0.609c-0.379,0.381-0.827,0.753-1.187,0.825c-0.159,0.033-0.337,0.001-0.518-0.074l-0.597,0.485
				c0.37,0.068,0.794,0.175,0.948,0.329c0.232,0.231-0.034,0.615-0.401,1.146c-0.11,0.159-0.265,0.383-0.334,0.517
				c0.125,0.018,0.336,0.023,0.488,0.026c0.57,0.012,0.928,0.035,1.087,0.248c0.175,0.233,0.03,0.612-0.11,0.979
				c-0.02,0.051-0.043,0.113-0.065,0.172c0.042-0.019,0.086-0.039,0.125-0.058c0.255-0.12,0.544-0.256,0.796-0.13
				c0.237,0.118,0.22,0.486,0.194,1.042c-0.01,0.224-0.029,0.615,0.008,0.78c0.113-0.054,0.22-0.102,0.332-0.152
				c0.449-0.199,0.958-0.426,1.843-1.102c0.356-0.272,0.831-0.682,1.333-1.116c1.898-1.64,2.499-2.077,2.821-1.82
				c1.646,1.317,1.465,4.07,1.367,5.549c-0.016,0.243-0.034,0.508-0.033,0.68c0.341-0.219,0.756-0.638,0.909-0.807
				c0.045-0.05,0.113-0.074,0.179-0.067c0.067,0.008,0.126,0.048,0.159,0.107c0.234,0.425,0.609,0.898,0.794,0.924
				c0.011,0.002,0.019,0.003,0.037-0.015c0.166-0.166,0.205-0.515,0.237-0.795c0.031-0.28,0.054-0.483,0.202-0.585
				c0.069-0.048,0.153-0.063,0.238-0.041c0.237,0.059,0.749,0.52,1.099,0.856c0.197-0.469,0.503-1.002,0.874-0.927
				c0.203,0.041,0.438,0.276,0.805,0.658c0.092,0.095,0.209,0.218,0.31,0.314c-0.038-4.728-1.075-8.601-1.085-8.641
				c0-0.002,0-0.003,0-0.005c-0.418-0.264-0.83-0.59-1.076-0.793L172.909,95.067z"/>
			<path fill="#A12F1E" d="M169.477,84.09c-0.903,1.569-2.932,2.913-4.145,3.716c-0.397,0.263-0.843,0.558-0.953,0.68
				c0.105,0.104,0.586,0.236,1.041,0.282c0.073,0.007,0.137,0.052,0.168,0.119c0.031,0.066,0.026,0.144-0.015,0.205
				c-0.311,0.467-0.546,1.021-0.483,1.139c0.231,0.112,1.138,0.014,1.706-0.094c0.072-0.015,0.146,0.011,0.195,0.066
				c0.049,0.055,0.065,0.132,0.043,0.202c-0.192,0.608-0.218,1.198-0.106,1.254c0.226,0.113,0.691-0.125,0.88-0.257
				c0.066-0.046,0.153-0.051,0.223-0.011c0.07,0.04,0.111,0.116,0.106,0.197c-0.016,0.226,0.009,0.611,0.111,0.721
				c0.498-0.108,5.052-3.633,6.318-7.298c0.875-2.532,0.269-4.075-0.171-4.77c-0.372-0.588-0.894-0.985-1.364-1.038
				c-0.04-0.004-0.073-0.023-0.103-0.046c-0.603,0.4-1.342,0.811-2.193,1.187C170.736,80.641,170.664,82.029,169.477,84.09z"/>
			<path fill="#7EAF63" d="M174.774,103.468c-0.183-0.19-0.441-0.451-0.533-0.48c-0.092,0.04-0.347,0.496-0.51,0.959
				c-0.024,0.068-0.081,0.119-0.151,0.134c-0.069,0.015-0.143-0.005-0.194-0.056c-0.361-0.361-0.808-0.763-1.029-0.913
				c-0.01,0.064-0.019,0.144-0.027,0.209c-0.037,0.327-0.087,0.775-0.357,1.045c-0.091,0.091-0.202,0.138-0.322,0.138
				c-0.023,0-0.046-0.002-0.069-0.005c-0.369-0.053-0.75-0.567-0.958-0.895c-0.165,0.165-0.414,0.399-0.666,0.582
				c0.026,0.047,0.034,0.103,0.018,0.157c0.001,0.015,0.009,0.047,0.015,0.071c0.072,0.302,0.095,0.677-0.547,1.318
				c-0.29,0.29-0.764,0.487-1.265,0.695c-0.645,0.268-1.311,0.545-1.461,0.988c-0.074,0.219-0.021,0.481,0.162,0.799
				c0.997,1.728,3.784,0.879,4.978,0.196c0.897-0.512,1.501-0.709,1.987-0.868c0.295-0.096,0.529-0.172,0.75-0.295
				c0.461-0.256,0.586-2.827,0.183-3.768C174.775,103.477,174.776,103.472,174.774,103.468z"/>
			<path fill="#801E0D" d="M166.626,78.927c0-0.043,0.001-1.05,0.072-1.408c0.106-0.53,1.628-1.041,1.643-1.046
				c0.212-0.07,0.492,0.105,0.831,0.514c0.775-0.989,1.15-1.982,1.294-2.51c-0.809,0.407-2.628,1.076-4.765,1.534
				c0.099,0.506,0.26,1.631-0.185,1.928c-0.372,0.248-1.588,0.479-2.299,0.48c-0.061,0-0.117-0.002-0.17-0.006
				c0.11,0.375,0.153,0.851,0.169,1.188c0.002,0.037-0.009,0.071-0.024,0.101c1.284,0.001,2.439-0.232,3.45-0.698
				C166.632,78.981,166.626,78.955,166.626,78.927z"/>
			<path fill="#E8DF9F" d="M168.446,76.88c-0.484,0.166-1.275,0.555-1.338,0.726c-0.045,0.228-0.06,0.858-0.063,1.198
				c0.594-0.323,1.133-0.731,1.616-1.226c0.085-0.087,0.16-0.176,0.238-0.264C168.735,77.11,168.533,76.916,168.446,76.88z"/>
			<path fill="#E8DF9F" d="M162.798,79.621c-0.031-0.643-0.167-1.306-0.286-1.392c-0.322-0.128-1.88-0.316-2.213-0.246
				c-0.042,0.178-0.05,0.793-0.028,1.349c0.614,0.164,1.321,0.285,2.136,0.343c0.138,0.01,0.274,0.016,0.41,0.021
				C162.806,79.673,162.799,79.648,162.798,79.621z"/>
			<path fill="#7EAF63" d="M154.157,88.878c0.003,0,0.006-0.001,0.009-0.001c-0.132-0.107-0.204-0.215-0.209-0.323
				c-0.003-0.061,0.011-0.215,0.207-0.313c0.214-0.107,0.474-0.365,0.651-0.564c-0.71-0.364-1.067-0.675-1.062-0.926
				c0.001-0.06,0.025-0.21,0.217-0.293c0.273-0.117,0.548-0.258,0.729-0.354c-0.037-0.051-0.07-0.097-0.103-0.144
				c-0.029,0.01-0.061,0.015-0.093,0.01c-0.112-0.015-1.108-0.159-1.556-0.606c-0.232-0.232-0.299-0.61-0.363-0.976
				c-0.063-0.358-0.128-0.727-0.334-0.83c-0.547-0.274-1.246-0.322-1.36-0.093c-0.101,0.202,0.103,1.028,0.35,1.677
				c0.035,0.092,0.001,0.196-0.082,0.25c-0.083,0.053-0.192,0.042-0.262-0.028c-0.014-0.014-1.425-1.422-1.945-1.748
				c-0.142-0.088-0.335-0.007-0.437,0.05c-0.405,0.224-0.746,0.746-0.746,1.14c0,0.379,1.176,1.118,2.266,1.585
				c0.094,0.04,0.145,0.143,0.121,0.242c-0.024,0.099-0.115,0.164-0.219,0.159c-1.259-0.095-2.718-0.019-2.883,0.244
				c-0.189,0.303-0.202,0.91-0.027,1.272c0.052,0.108,0.143,0.239,0.283,0.255c0.473,0.05,1.589-0.177,1.979-0.269
				c0.106-0.026,0.213,0.035,0.247,0.138c0.034,0.104-0.017,0.215-0.117,0.258c-0.458,0.193-1.2,0.652-1.24,1.058
				c-0.022,0.224,0.06,0.439,0.233,0.608c0.19,0.186,0.464,0.287,0.695,0.258c0.239-0.03,0.429-0.188,0.692-0.407
				c0.233-0.195,0.524-0.437,0.944-0.663C151.514,89.127,153.234,88.965,154.157,88.878z"/>
			<path fill="#A12F1E" d="M155.214,86.216c-0.012,0.059-0.049,0.11-0.101,0.139c-0.019,0.011-0.437,0.248-0.887,0.449
				c0.157,0.149,0.577,0.409,1.01,0.616c0.057,0.027,0.099,0.079,0.113,0.141c0.015,0.062,0,0.126-0.039,0.176
				c-0.019,0.025-0.448,0.572-0.868,0.828c0.12,0.084,0.35,0.2,0.572,0.283c0.071,0.026,0.122,0.089,0.133,0.164
				c0.011,0.075-0.018,0.15-0.077,0.196l-0.774,0.608c0.74,0.239,3.489,0.535,5.59-0.812c2.48-1.59,2.792-2.032,2.804-2.05
				c0.025-0.05,0.067-0.083,0.115-0.099c-0.075-2.604-0.478-5.058-0.483-5.091c-0.002-0.01,0.001-0.019,0.001-0.028
				c-0.073-0.006-0.146-0.011-0.218-0.018c-0.068,0.358-0.404,1.596-1.964,3.037c-1.496,1.381-4.219,0.63-5.381,0.309
				c-0.095-0.026-0.191-0.053-0.273-0.074c0.128,0.256,0.418,0.696,0.689,1.058C155.213,86.096,155.227,86.157,155.214,86.216z"/>
			<path fill="#7EAF63" d="M173.864,77.891c0.97-0.969,1.286-2.199,1.541-3.187c0.127-0.493,0.237-0.92,0.409-1.214
				c0.172-0.295,0.525-0.485,0.934-0.705c0.911-0.491,2.159-1.163,2.526-3.46c0.228-1.424,0.046-2.508-0.527-3.133
				c-0.557-0.608-1.294-0.606-1.507-0.59c-0.852,0.061-2.842,1.702-3.436,3.879c-0.026,0.095-0.115,0.156-0.213,0.154
				c-0.098-0.005-0.18-0.078-0.196-0.175c-0.3-1.84-0.015-2.843,0.286-3.905c0.258-0.909,0.525-1.849,0.463-3.435
				c-0.122-3.091-1.853-4.811-2.141-5.075c-2.602-0.424-5.101,1.127-5.126,1.143c-0.065,0.04-0.146,0.043-0.213,0.006
				c-0.067-0.037-0.108-0.107-0.108-0.183c0-0.462,0.211-1.009,0.415-1.428c-2.038,0.984-6.314,1.93-6.518,1.974
				c-0.057,0.012-0.117,0-0.165-0.033c-0.048-0.034-0.08-0.086-0.087-0.144c-0.053-0.397,0.04-0.815,0.181-1.189
				c-2.063,1.62-4.551,1.839-4.673,1.849c-0.058,0.003-0.116-0.015-0.159-0.055c-0.043-0.04-0.067-0.095-0.067-0.154
				c0-0.602,0.19-1.196,0.404-1.676c-0.54,0.474-1.221,1.101-1.744,1.677c0.035,0.042,0.054,0.098,0.048,0.156
				c-0.01,0.102-1.01,10.22,0.066,15.798c0.861,4.469,4.217,6.688,9.976,6.598C168.535,81.316,172.455,79.3,173.864,77.891z
				 M155.029,62.934c0.017-0.004,0.377-0.089,0.99-0.205c0.021-0.26,0.074-0.517,0.17-0.76c0.043-0.108,0.164-0.161,0.272-0.118
				c0.107,0.042,0.16,0.164,0.118,0.271c-0.067,0.17-0.112,0.348-0.135,0.528c0.54-0.095,1.217-0.202,1.992-0.3
				c-0.008-0.246-0.008-0.492,0.013-0.739c0.01-0.115,0.114-0.2,0.226-0.191c0.115,0.01,0.201,0.111,0.191,0.226
				c-0.018,0.219-0.02,0.437-0.014,0.654c0.523-0.061,1.083-0.116,1.675-0.161c-0.022-0.314-0.011-0.63,0.033-0.945
				c0.016-0.114,0.123-0.197,0.237-0.178c0.114,0.016,0.194,0.122,0.178,0.236c-0.04,0.282-0.049,0.57-0.028,0.857
				c0.788-0.051,1.621-0.081,2.482-0.078c0.031-0.378,0.116-0.752,0.262-1.102c0.045-0.107,0.168-0.157,0.274-0.113
				c0.107,0.045,0.157,0.167,0.112,0.274c-0.125,0.3-0.2,0.62-0.23,0.945c0.676,0.011,1.364,0.043,2.057,0.103
				c-0.003-0.268,0.005-0.536,0.033-0.803c0.012-0.115,0.114-0.201,0.23-0.187c0.115,0.012,0.198,0.115,0.186,0.23
				c-0.028,0.266-0.035,0.532-0.031,0.798c0.675,0.068,1.35,0.164,2.019,0.291l0.024-0.574c0.005-0.115,0.106-0.208,0.218-0.2
				c0.115,0.005,0.205,0.102,0.2,0.218l-0.027,0.637c0.431,0.091,0.859,0.196,1.281,0.316c0.111,0.032,0.175,0.147,0.144,0.259
				c-0.031,0.111-0.145,0.177-0.259,0.144c-0.39-0.111-0.785-0.208-1.184-0.294l-0.048,1.128c-0.005,0.112-0.097,0.2-0.209,0.2
				c-0.003,0-0.006,0-0.009,0c-0.115-0.005-0.205-0.102-0.2-0.218l0.051-1.193c-0.656-0.127-1.319-0.222-1.981-0.291
				c0.019,0.235,0.046,0.469,0.089,0.701c0.021,0.114-0.054,0.223-0.167,0.244c-0.013,0.002-0.026,0.004-0.039,0.004
				c-0.099,0-0.187-0.07-0.205-0.171c-0.051-0.271-0.081-0.545-0.1-0.819c-0.702-0.061-1.4-0.095-2.085-0.106
				c0.012,0.326,0.07,0.65,0.179,0.957c0.039,0.109-0.018,0.229-0.127,0.267c-0.023,0.008-0.047,0.012-0.07,0.012
				c-0.086,0-0.167-0.053-0.197-0.139c-0.126-0.353-0.191-0.726-0.203-1.102c-0.838-0.003-1.65,0.026-2.418,0.076
				c0.056,0.324,0.148,0.641,0.279,0.94c0.046,0.106-0.002,0.229-0.108,0.275c-0.027,0.012-0.056,0.018-0.084,0.018
				c-0.081,0-0.157-0.047-0.192-0.125c-0.152-0.347-0.256-0.709-0.317-1.079c-0.602,0.045-1.172,0.102-1.702,0.164
				c0.033,0.328,0.091,0.653,0.179,0.973c0.031,0.111-0.035,0.227-0.146,0.257c-0.019,0.005-0.037,0.007-0.055,0.007
				c-0.092,0-0.176-0.061-0.202-0.154c-0.093-0.34-0.155-0.685-0.191-1.033c-0.799,0.102-1.488,0.212-2.03,0.309
				c0.021,0.388,0.135,0.77,0.343,1.098c0.062,0.098,0.033,0.227-0.065,0.289c-0.035,0.022-0.074,0.033-0.112,0.033
				c-0.069,0-0.137-0.034-0.177-0.097c-0.237-0.373-0.371-0.806-0.404-1.246c-0.551,0.105-0.873,0.181-0.889,0.185
				c-0.016,0.004-0.033,0.006-0.049,0.006c-0.094,0-0.18-0.064-0.203-0.16C154.847,63.074,154.916,62.961,155.029,62.934z
				 M169.078,69.027c-0.035,0-0.071-0.005-0.106-0.013c-0.412-0.103-1.647-0.004-2.812,0.107c-0.792,0.075-1.611,0.154-2.19,0.154
				c-0.47,0-0.735-0.048-0.884-0.16c-0.375-0.281-0.777-0.775-0.779-1.319c-0.001-0.248,0.086-0.61,0.504-0.929
				c0.859-0.654,2.589-0.752,3.544-0.752c1.33,0,2.699,0.179,3.051,0.4c0.471,0.294,0.453,1.257,0.293,1.815
				C169.571,68.78,169.35,69.027,169.078,69.027z M169.09,72.335c-0.45,1.054-1.378,1.831-2.482,2.08
				c-0.167,0.038-0.336,0.057-0.503,0.057c-1.246,0-2.298-1.076-2.789-2.143c-0.15-0.326-0.365-0.914-0.126-1.194
				c0.434-0.506,4.017-0.985,5.204-0.985c0.46,0,0.653,0.051,0.739,0.194C169.424,70.828,169.407,71.591,169.09,72.335z
				 M160.363,73.95c0.097,0.324,0.389,0.576,0.869,0.747c0.109,0.039,0.166,0.159,0.127,0.267c-0.031,0.086-0.111,0.139-0.197,0.139
				c-0.023,0-0.047-0.004-0.07-0.012c-0.613-0.219-0.993-0.563-1.13-1.023c-0.241-0.812,0.391-1.657,0.418-1.693
				c0.07-0.091,0.201-0.11,0.293-0.04c0.092,0.07,0.11,0.201,0.04,0.293C160.708,72.636,160.181,73.343,160.363,73.95z
				 M154.588,69.378c-0.183-0.506-0.317-1.625,0.082-1.958c0.362-0.302,2.166-0.647,3.385-0.647c0.574,0,0.958,0.074,1.175,0.226
				c0.773,0.541,0.723,1.688,0.477,2.179c-0.116,0.233-0.409,0.263-0.651,0.263c-0.217,0-0.478-0.027-0.78-0.057
				c-0.366-0.037-0.781-0.08-1.194-0.08c-0.784,0-1.35,0.159-1.732,0.487c-0.099,0.085-0.195,0.103-0.258,0.103
				C154.881,69.893,154.712,69.719,154.588,69.378z M155.571,71.375c0.376-0.268,1.706-0.389,2.531-0.389
				c1.394,0,1.592,0.278,1.657,0.369c0.246,0.344,0.027,0.986-0.078,1.246c-0.317,0.782-1.059,1.762-2.105,1.952
				c-0.085,0.015-0.171,0.023-0.255,0.023h0c-0.92,0-1.618-0.894-1.902-1.78C155.204,72.128,155.261,71.596,155.571,71.375z
				 M162.377,80.093c-6.758-0.488-6.554-5.164-6.551-5.211c0.005-0.075,0.049-0.141,0.116-0.175
				c0.067-0.034,0.147-0.029,0.209,0.013c0.02,0.014,2.093,1.363,5.475,1.363c0.293,0,0.592-0.01,0.888-0.03
				c3.932-0.266,7.788-1.859,8.058-2.114c0.035-0.048,0.1-0.082,0.169-0.082c0.076,0,0.219,0.051,0.219,0.246
				c0,0.295-0.363,1.789-1.518,3.223c-1.027,1.276-2.943,2.798-6.239,2.798C162.935,80.124,162.657,80.113,162.377,80.093z"/>
			<path fill="#E8DF9F" d="M157.321,74.158L157.321,74.158c0.06,0,0.12-0.005,0.18-0.017c0.879-0.16,1.515-1.014,1.792-1.697
				c0.193-0.475,0.179-0.771,0.126-0.846c-0.017-0.021-0.081-0.057-0.209-0.091c0.096,0.328,0.035,1.048-0.873,1.056
				c-0.948,0.009-0.956-0.742-0.884-1.078c0.005-0.023,0.028-0.044,0.061-0.065c-0.82,0.046-1.536,0.177-1.699,0.294
				c-0.12,0.086-0.159,0.449,0.002,0.954C156.047,73.386,156.616,74.158,157.321,74.158z"/>
			<path fill="#8A4726" d="M158.319,68.967c0.291,0.03,0.542,0.055,0.738,0.055c0.233,0,0.281-0.039,0.283-0.041
				c0.142-0.288,0.258-1.215-0.35-1.64c-0.064-0.045-0.284-0.15-0.935-0.15c-1.195,0-2.887,0.357-3.117,0.55
				c-0.049,0.041-0.138,0.288-0.098,0.788c0.04,0.497,0.172,0.836,0.253,0.929c0.468-0.388,1.116-0.574,1.989-0.574
				C157.517,68.885,157.943,68.928,158.319,68.967z"/>
			<path fill="#E8DF9F" d="M168.394,70.568c-0.084,0-0.175,0.002-0.27,0.006c0.029,0.021,0.053,0.044,0.064,0.071
				c0.153,0.363,0.164,1.32-0.987,1.378c-1.127,0.057-1.195-0.814-1.132-1.236c-1.227,0.184-2.394,0.445-2.561,0.621
				c-0.036,0.074,0.019,0.517,0.399,1.14c0.216,0.353,1.011,1.505,2.198,1.505c0.136,0,0.274-0.016,0.411-0.047
				c0.973-0.22,1.791-0.906,2.189-1.836c0.253-0.592,0.287-1.202,0.092-1.572C168.754,70.587,168.644,70.568,168.394,70.568z"/>
			<path fill="#801E0D" d="M159.864,78.13c-0.001,0-0.002,0-0.003,0c-0.006,0-0.012,0-0.018,0c-0.621-0.01-1.91-0.561-2.13-0.854
				c-0.221-0.295-0.199-1.133-0.181-1.453c-0.575-0.204-1.006-0.412-1.277-0.558c0.077,0.85,0.578,2.966,3.593,3.942
				C159.835,78.825,159.835,78.428,159.864,78.13z"/>
			<path fill="#E8DF9F" d="M159.981,77.695c0.107-0.136-0.039-0.79-0.243-1.285c-0.006-0.015-0.006-0.03-0.009-0.046
				c-0.68-0.101-1.275-0.247-1.784-0.405c-0.015,0.455,0.018,0.953,0.103,1.065C158.245,77.27,159.748,77.842,159.981,77.695z"/>
			<path fill="#801E0D" d="M160.427,77.564c0.584-0.04,1.536,0.12,1.994,0.218c-0.096-0.387-0.114-0.889-0.107-1.3
				c-0.23,0.012-0.46,0.02-0.688,0.02c-0.508,0-0.987-0.029-1.434-0.078C160.298,76.711,160.446,77.186,160.427,77.564z"/>
			<path fill="#E8DF9F" d="M162.944,77.98c0.345,0.113,1.99-0.156,2.34-0.389c0.144-0.096,0.142-0.789,0.005-1.496
				c-0.825,0.163-1.689,0.291-2.555,0.358C162.723,77.189,162.816,77.89,162.944,77.98z"/>
			<path fill="#310024" d="M169.7,68.33c0.16-0.558,0.177-1.521-0.293-1.815c-0.352-0.22-1.721-0.4-3.051-0.4
				c-0.955,0-2.685,0.098-3.544,0.752c-0.418,0.319-0.505,0.681-0.504,0.929c0.002,0.544,0.404,1.038,0.779,1.319
				c0.149,0.112,0.414,0.16,0.884,0.16c0.578,0,1.397-0.078,2.19-0.154c1.165-0.111,2.4-0.21,2.812-0.107
				c0.035,0.009,0.071,0.013,0.106,0.013C169.35,69.027,169.571,68.78,169.7,68.33z M169.298,68.214
				c-0.092,0.32-0.202,0.393-0.224,0.393h0c-0.164-0.041-0.392-0.061-0.696-0.061c-0.607,0-1.446,0.08-2.257,0.157
				c-0.782,0.075-1.591,0.152-2.15,0.152c-0.506,0-0.616-0.063-0.633-0.076c-0.303-0.227-0.61-0.621-0.612-0.986
				c-0.001-0.225,0.11-0.42,0.339-0.594c0.564-0.43,1.733-0.667,3.29-0.667c1.399,0,2.61,0.199,2.829,0.336
				C169.394,67,169.451,67.679,169.298,68.214z"/>
			<path fill="#310024" d="M157.083,69.303c0.413,0,0.828,0.043,1.194,0.08c0.302,0.031,0.563,0.057,0.78,0.057
				c0.242,0,0.535-0.03,0.651-0.263c0.245-0.49,0.295-1.638-0.477-2.179c-0.217-0.152-0.601-0.226-1.175-0.226
				c-1.22,0-3.023,0.344-3.385,0.647c-0.399,0.332-0.266,1.451-0.082,1.958c0.124,0.342,0.293,0.515,0.504,0.515
				c0.063,0,0.159-0.018,0.258-0.103C155.733,69.462,156.299,69.303,157.083,69.303z M154.841,68.529
				c-0.04-0.5,0.049-0.747,0.098-0.788c0.23-0.192,1.923-0.55,3.117-0.55c0.65,0,0.87,0.105,0.935,0.15
				c0.608,0.425,0.491,1.352,0.35,1.64c-0.002,0.002-0.051,0.041-0.283,0.041c-0.196,0-0.447-0.026-0.738-0.055
				c-0.376-0.038-0.802-0.082-1.237-0.082c-0.873,0-1.521,0.186-1.989,0.574C155.013,69.365,154.88,69.027,154.841,68.529z"/>
			<path fill="#310024" d="M168.394,70.15c-1.187,0-4.77,0.479-5.204,0.985c-0.24,0.28-0.024,0.868,0.126,1.194
				c0.491,1.066,1.543,2.143,2.789,2.143c0.167,0,0.336-0.019,0.503-0.057c1.104-0.249,2.031-1.027,2.482-2.08
				c0.318-0.744,0.335-1.506,0.044-1.991C169.048,70.201,168.854,70.15,168.394,70.15z M168.705,72.17
				c-0.398,0.93-1.216,1.617-2.189,1.836c-0.137,0.031-0.275,0.047-0.411,0.047c-1.186,0-1.982-1.152-2.198-1.505
				c-0.38-0.623-0.436-1.066-0.399-1.14c0.167-0.176,1.335-0.437,2.561-0.621c-0.063,0.422,0.005,1.293,1.132,1.236
				c1.151-0.059,1.14-1.016,0.987-1.378c-0.011-0.027-0.035-0.05-0.064-0.071c0.095-0.004,0.186-0.006,0.27-0.006
				c0.249,0,0.359,0.019,0.402,0.03C168.992,70.969,168.958,71.579,168.705,72.17z"/>
			<path fill="#310024" d="M157.321,74.577L157.321,74.577c0.085,0,0.171-0.008,0.255-0.023c1.047-0.19,1.788-1.17,2.105-1.952
				c0.105-0.26,0.324-0.902,0.078-1.246c-0.065-0.092-0.264-0.369-1.657-0.369c-0.825,0-2.155,0.12-2.531,0.389
				c-0.31,0.222-0.367,0.753-0.153,1.422C155.703,73.683,156.401,74.576,157.321,74.577z M155.815,71.715
				c0.163-0.117,0.879-0.248,1.699-0.294c-0.032,0.02-0.056,0.041-0.061,0.065c-0.071,0.336-0.064,1.086,0.884,1.078
				c0.907-0.008,0.968-0.728,0.873-1.056c0.128,0.035,0.193,0.07,0.209,0.091c0.054,0.075,0.067,0.371-0.126,0.846
				c-0.277,0.683-0.913,1.538-1.792,1.697c-0.06,0.011-0.121,0.017-0.18,0.017h0c-0.705,0-1.274-0.772-1.504-1.489
				C155.655,72.164,155.695,71.801,155.815,71.715z"/>
			<path fill="#310024" d="M150.939,89.912c0.699-0.376,2.427-0.539,3.258-0.617c0.035-0.003,0.067-0.006,0.099-0.009l-0.428,0.336
				c-0.128,0.086-0.162,0.238-0.08,0.363c0.142,0.217,1.055,0.453,2.244,0.453c1.137,0,2.523-0.222,3.728-0.879
				c-0.054,0.189-0.049,0.42,0.04,0.708c0.099,0.321,0.307,0.563,0.547,0.744c-0.886-0.025-1.848,0.034-2.089,0.372
				c-0.26,0.365-0.501,1.187-0.275,1.784c0.119,0.313,0.351,0.518,0.672,0.591c0.345,0.08,0.816,0.074,1.274,0.034
				c-0.529,0.241-1.052,0.485-1.263,0.606c-0.098,0.056-0.31,0.232-0.153,0.651c0.13,0.347,0.491,0.789,0.895,1.08l-0.838,0.681
				c-0.065,0.053-0.092,0.139-0.069,0.22c0.023,0.081,0.092,0.14,0.175,0.15c0.139,0.017,0.278,0.039,0.411,0.064
				c-0.189,0.248-0.596,0.682-1.137,0.682c-0.221,0-0.531-0.207-0.859-0.425c-0.778-0.518-1.844-1.23-2.925,0.092
				c-0.264,0.323-0.099,1.072,0.491,2.228c0.705,1.381,2.416,3.925,3.409,3.924c0.011,0,0.022,0,0.033-0.001
				c1.03-0.061,2.891-1.236,3.478-1.623c0.032,0.069,0.077,0.123,0.136,0.162c0.061,0.039,0.188,0.092,0.364,0.004
				c0.118-0.059,0.237-0.112,0.362-0.167c0.447-0.199,1.003-0.446,1.927-1.152c0.366-0.28,0.845-0.694,1.352-1.132
				c0.75-0.648,1.993-1.722,2.319-1.784c1.441,1.193,1.271,3.776,1.179,5.169c-0.05,0.757-0.068,1.04,0.112,1.168
				c0.07,0.049,0.155,0.058,0.238,0.029c0.005,0.033,0.012,0.066,0.019,0.096c0.04,0.167,0.094,0.396-0.435,0.925
				c-0.232,0.232-0.668,0.413-1.13,0.605c-0.731,0.304-1.486,0.617-1.697,1.24c-0.114,0.335-0.048,0.72,0.196,1.142
				c0.511,0.885,1.438,1.219,2.448,1.219c1.073,0,2.241-0.377,3.101-0.869c0.86-0.491,1.442-0.681,1.909-0.833
				c0.304-0.099,0.567-0.185,0.823-0.327c0.644-0.357,0.739-2.373,0.543-3.603c0.132,0.096,0.243,0.13,0.353,0.085
				c0.051-0.02,0.168-0.089,0.168-0.288c0-4.036-0.74-7.51-1.007-8.629c0.061,0.028,0.122,0.056,0.179,0.076
				c0.06,0.022,0.127,0.015,0.181-0.019c0.055-0.034,0.09-0.09,0.098-0.154l0.105-0.897c0.299,0.103,0.791,0.242,1.152,0.191
				c0.066-0.009,0.124-0.05,0.156-0.109c0.031-0.059,0.032-0.13,0.003-0.19c-0.019-0.038-1.899-3.906-2.166-7.919
				c-0.001-0.015-0.008-0.028-0.012-0.042c0.16-0.322,0.299-0.646,0.411-0.969c0.932-2.698,0.267-4.372-0.213-5.13
				c-0.374-0.591-0.875-1.007-1.383-1.165c0.317-0.234,0.587-0.46,0.793-0.666c1.05-1.05,1.397-2.396,1.65-3.378
				c0.119-0.463,0.222-0.863,0.365-1.107c0.113-0.193,0.418-0.358,0.771-0.548c0.932-0.502,2.341-1.261,2.741-3.763
				c0.239-1.495,0.061-2.625-0.531-3.363c1.11-5.788-0.593-9.013-1.091-9.801c0.525-0.253,1.381-0.093,1.697,0.002
				c0.079,0.023,0.163-0.001,0.217-0.062c0.054-0.061,0.068-0.148,0.035-0.223c-0.978-2.216-4.835-2.871-5.583-2.978
				c-0.411-0.858-1.832-1.917-6.14-2.341c-4.089-0.402-9.049-2.493-9.098-2.514c-0.068-0.029-0.147-0.02-0.206,0.025
				c-0.06,0.044-0.091,0.116-0.084,0.19c0.086,0.82,0.405,1.317,0.659,1.59c-7.869,2.279-6.55,9.766-6.535,9.842
				c0.017,0.089,0.089,0.157,0.179,0.169c0.089,0.012,0.177-0.036,0.216-0.119c0.07-0.148,0.181-0.318,0.321-0.5
				c-0.09,1.005-0.334,3.972-0.388,7.283c-0.353-0.212-1.096-0.565-1.804-0.308c-0.607,0.219-1.029,0.824-1.255,1.797
				c-0.351,1.508-0.115,2.936,0.664,4.02c0.642,0.894,1.613,1.466,2.664,1.567c0.007,0.001,0.014,0.001,0.02,0.001
				c0.005,0,0.009-0.002,0.013-0.003c0.055,0.417,0.118,0.82,0.191,1.2c0.768,3.985,3.403,6.265,7.84,6.809
				c-0.07,0.331-0.399,1.453-1.83,2.773c-1.325,1.224-3.891,0.515-4.986,0.213c-0.431-0.119-0.56-0.151-0.665-0.126
				c-0.089,0.022-0.157,0.084-0.187,0.17c-0.022,0.062-0.075,0.219,0.28,0.805c-0.339-0.072-0.83-0.216-1.056-0.441
				c-0.139-0.138-0.194-0.451-0.247-0.753c-0.077-0.438-0.165-0.935-0.559-1.132c-0.605-0.302-1.634-0.481-1.921,0.094
				c-0.129,0.258-0.049,0.753,0.069,1.199c-0.466-0.444-1.083-1.009-1.411-1.215c-0.24-0.15-0.546-0.137-0.862,0.039
				c-0.473,0.262-0.962,0.897-0.962,1.506c0,0.545,0.87,1.13,1.602,1.526c-0.889-0.005-1.996,0.071-2.253,0.483
				c-0.267,0.428-0.289,1.179-0.049,1.676c0.139,0.286,0.356,0.46,0.613,0.488c0.253,0.029,0.623-0.006,0.984-0.059
				c-0.25,0.219-0.456,0.486-0.486,0.787c-0.035,0.353,0.091,0.69,0.357,0.949c0.248,0.242,0.585,0.382,0.907,0.382
				c0.045,0,0.089-0.003,0.132-0.008c0.361-0.045,0.614-0.256,0.908-0.501C150.295,90.336,150.556,90.118,150.939,89.912z
				 M165.034,81.768c0.168,0.482,0.883,2.544,1.121,3.434c0.021,0.08,0.088,0.14,0.17,0.153c0.011,0.002,0.022,0.002,0.032,0.002
				c0.07,0,0.137-0.036,0.176-0.096c0.051-0.08,1.254-1.975,1.263-3.92c0.903-0.218,1.747-0.497,2.512-0.811
				c-0.039,0.476-0.234,1.686-1.193,3.352c-0.854,1.483-2.831,2.793-4.013,3.575c-0.791,0.524-1.067,0.715-1.131,0.906
				c-0.038,0.113-0.022,0.231,0.043,0.332c0.023,0.035,0.053,0.067,0.087,0.098c-0.209,0.115-0.539,0.29-0.923,0.465
				c0.239-3.058-0.34-6.912-0.431-7.487c0.371,0.022,0.751,0.035,1.145,0.035c0.115,0,0.232-0.001,0.349-0.003
				C164.508,81.798,164.772,81.785,165.034,81.768z M165.464,81.73c0.657-0.062,1.295-0.161,1.908-0.292
				c-0.035,1.27-0.611,2.54-0.951,3.177C166.133,83.666,165.647,82.256,165.464,81.73z M162.743,89.43
				c-0.186,0.03-0.32-0.088-0.548-0.341c-0.214-0.237-0.501-0.551-0.943-0.484c0.879-0.599,1.332-0.965,1.564-1.181
				C162.823,88.108,162.802,88.79,162.743,89.43z M159.19,95.356c-0.285-0.339-0.329-0.558-0.317-0.593
				c0.463-0.265,2.624-1.211,2.646-1.22c0.099-0.043,0.148-0.154,0.115-0.257c-0.034-0.102-0.139-0.162-0.244-0.139
				c-0.018,0.004-1.809,0.398-2.642,0.205c-0.183-0.042-0.306-0.151-0.374-0.332c-0.163-0.43,0.024-1.113,0.224-1.393
				c0.144-0.202,1.525-0.257,2.954-0.119c0.112,0.011,0.213-0.069,0.228-0.181c0.014-0.112-0.063-0.216-0.174-0.233
				c-0.012-0.002-1.174-0.197-1.405-0.949c-0.205-0.667,0.145-0.813,1.028-1.107c0.263-0.088,0.413,0.061,0.657,0.332
				c0.244,0.271,0.579,0.64,1.126,0.417c0.002-0.001,0.004-0.001,0.005-0.002c0.001,0,0.002,0,0.003-0.001
				c0.819-0.342,1.492-0.742,1.529-0.764c0.169,0.055,0.348,0.094,0.503,0.12c-0.201,0.345-0.454,0.868-0.368,1.193
				c0.032,0.121,0.105,0.213,0.212,0.266c0.343,0.171,1.166,0.081,1.649,0.006c-0.116,0.48-0.216,1.223,0.196,1.429
				c0.013,0.006,0.026,0.009,0.039,0.015c-0.414,0.338-0.922,0.676-1.381,0.979c-0.555,0.367-1.034,0.684-1.252,0.938
				c-0.212,0.247-0.317,0.647-0.429,1.07c-0.115,0.435-0.245,0.929-0.48,1.076c-0.445,0.278-1.218,0.038-1.357-0.144
				c-0.052-0.133,0.146-0.738,0.424-1.294c0.048-0.096,0.015-0.213-0.076-0.271c-0.091-0.058-0.211-0.036-0.277,0.049
				c-0.431,0.558-1.279,1.475-1.721,1.563c-0.071,0.014-0.164-0.006-0.267-0.048c-0.003-0.005-0.004-0.01-0.008-0.015
				c-0.043-0.053-0.106-0.076-0.168-0.074C159.591,95.761,159.376,95.578,159.19,95.356z M158.073,103.327
				c-0.005,0-0.01,0.001-0.015,0.001c-0.569,0-2.088-1.849-3.03-3.696c-0.627-1.229-0.603-1.697-0.54-1.773
				c0.841-1.027,1.583-0.532,2.369-0.009c0.382,0.255,0.744,0.496,1.091,0.496c0.872,0,1.436-0.778,1.581-1.003
				c0.118,0.031,0.214,0.063,0.272,0.091c-0.055,0.144-0.266,0.451-0.399,0.643c-0.337,0.487-0.541,0.781-0.397,0.997
				c0.118,0.178,0.385,0.192,0.886,0.202c0.238,0.005,0.681,0.015,0.756,0.071c0.03,0.089-0.099,0.426-0.161,0.588
				c-0.123,0.32-0.204,0.532-0.095,0.69c0.05,0.072,0.132,0.114,0.224,0.114c0.159,0,0.325-0.078,0.501-0.161
				c0.116-0.054,0.299-0.141,0.393-0.141c0.025,0.125,0.011,0.439,0.001,0.655c-0.01,0.224-0.017,0.416-0.012,0.581
				C161.263,101.829,159.109,103.266,158.073,103.327z M174.594,107.249c-0.221,0.123-0.454,0.199-0.75,0.295
				c-0.485,0.158-1.089,0.355-1.987,0.868c-1.194,0.682-3.981,1.532-4.978-0.196c-0.183-0.318-0.236-0.58-0.162-0.799
				c0.15-0.443,0.817-0.72,1.461-0.988c0.501-0.208,0.975-0.405,1.265-0.695c0.641-0.641,0.618-1.016,0.547-1.318
				c-0.006-0.024-0.014-0.057-0.015-0.071c0.016-0.055,0.007-0.111-0.018-0.157c0.252-0.183,0.501-0.417,0.666-0.582
				c0.208,0.328,0.589,0.842,0.958,0.895c0.023,0.003,0.046,0.005,0.069,0.005c0.121,0,0.231-0.047,0.322-0.138
				c0.27-0.27,0.32-0.718,0.357-1.045c0.007-0.066,0.016-0.145,0.027-0.209c0.221,0.15,0.668,0.551,1.029,0.913
				c0.051,0.051,0.125,0.071,0.194,0.056c0.07-0.016,0.127-0.067,0.151-0.134c0.163-0.463,0.419-0.92,0.51-0.959
				c0.092,0.029,0.35,0.29,0.533,0.48c0.002,0.004,0.001,0.009,0.003,0.013C175.18,104.422,175.056,106.993,174.594,107.249z
				 M174.357,94.909c0.011,0.039,1.048,3.913,1.085,8.641c-0.101-0.096-0.219-0.218-0.31-0.314
				c-0.367-0.381-0.602-0.617-0.805-0.658c-0.371-0.075-0.677,0.458-0.874,0.927c-0.35-0.336-0.862-0.797-1.099-0.856
				c-0.085-0.021-0.169-0.006-0.238,0.041c-0.148,0.103-0.171,0.305-0.202,0.585c-0.031,0.28-0.07,0.629-0.237,0.795
				c-0.018,0.017-0.025,0.016-0.037,0.015c-0.185-0.026-0.56-0.499-0.794-0.924c-0.033-0.059-0.092-0.099-0.159-0.107
				c-0.067-0.007-0.134,0.017-0.179,0.067c-0.153,0.169-0.568,0.587-0.909,0.807c0-0.173,0.017-0.438,0.033-0.68
				c0.098-1.479,0.279-4.232-1.367-5.549c-0.322-0.257-0.923,0.18-2.821,1.82c-0.502,0.434-0.976,0.844-1.333,1.116
				c-0.885,0.676-1.394,0.903-1.843,1.102c-0.112,0.05-0.219,0.097-0.332,0.152c-0.037-0.165-0.019-0.556-0.008-0.78
				c0.026-0.556,0.043-0.924-0.194-1.042c-0.251-0.126-0.541,0.01-0.796,0.13c-0.04,0.019-0.083,0.039-0.125,0.058
				c0.021-0.059,0.045-0.121,0.065-0.172c0.14-0.367,0.286-0.746,0.11-0.979c-0.159-0.213-0.517-0.235-1.087-0.248
				c-0.152-0.003-0.362-0.008-0.488-0.026c0.069-0.134,0.224-0.357,0.334-0.517c0.367-0.531,0.633-0.915,0.401-1.146
				c-0.154-0.154-0.578-0.262-0.948-0.329l0.597-0.485c0.181,0.075,0.358,0.106,0.518,0.074c0.36-0.072,0.808-0.444,1.187-0.825
				c-0.056,0.253-0.059,0.477,0.04,0.609c0.184,0.245,0.682,0.447,1.181,0.447c0.261,0,0.523-0.056,0.738-0.19
				c0.266-0.166,0.416-0.492,0.531-0.858c0.179-0.009,1.711-0.107,2.586-0.946c0.318,0.275,1.057,0.939,1.306,1.387
				c0.037,0.066,0.107,0.108,0.183,0.108c0.076,0,0.146-0.041,0.183-0.108l0.552-0.994c0.378,0.344,1.132,0.949,1.64,0.822
				c0.5-0.125,0.787-0.835,0.908-1.219l1.286,0.526c0.052,0.021,0.11,0.02,0.162-0.001c0.051-0.022,0.092-0.064,0.113-0.117
				l0.372-0.956c0.246,0.204,0.659,0.529,1.076,0.793C174.357,94.906,174.357,94.907,174.357,94.909z M176.212,93.957
				c-0.333-0.045-0.728-0.186-0.889-0.252c-0.061-0.025-0.129-0.02-0.186,0.013c-0.057,0.033-0.095,0.091-0.102,0.156l-0.104,0.881
				c-0.694-0.354-1.591-1.141-1.601-1.15c-0.051-0.045-0.122-0.063-0.188-0.046c-0.066,0.016-0.121,0.064-0.146,0.127l-0.401,1.032
				l-1.307-0.535c-0.057-0.023-0.121-0.02-0.175,0.008c-0.054,0.028-0.094,0.078-0.108,0.138c-0.08,0.339-0.347,1.064-0.667,1.144
				c-0.298,0.075-1.034-0.495-1.442-0.902c-0.046-0.046-0.111-0.069-0.177-0.059c-0.065,0.009-0.122,0.048-0.154,0.105l-0.519,0.933
				c-0.468-0.603-1.311-1.301-1.353-1.335c-0.088-0.073-0.218-0.061-0.292,0.025c-0.615,0.718-1.854,0.898-2.29,0.94
				c0.003-0.012,0.007-0.025,0.01-0.037c0.095-0.359,0.192-0.73,0.342-0.904c0.18-0.21,0.659-0.527,1.165-0.861
				c0.572-0.378,1.22-0.807,1.689-1.24c0.022-0.021,0.039-0.045,0.05-0.072c0.128-0.033,0.249-0.082,0.353-0.132
				c0.017,0.228,0.072,0.501,0.221,0.661c0.088,0.095,0.202,0.145,0.328,0.145c0.468,0,4.079-2.811,5.926-5.967
				C174.53,89.995,175.786,93.008,176.212,93.957z M173.032,79.204c0.469,0.052,0.992,0.45,1.364,1.038
				c0.439,0.694,1.045,2.238,0.171,4.77c-1.266,3.665-5.82,7.19-6.318,7.298c-0.102-0.11-0.127-0.495-0.111-0.721
				c0.006-0.08-0.035-0.157-0.106-0.197c-0.07-0.04-0.157-0.036-0.223,0.011c-0.19,0.133-0.654,0.37-0.88,0.257
				c-0.112-0.056-0.086-0.646,0.106-1.254c0.022-0.07,0.006-0.147-0.043-0.202c-0.049-0.055-0.124-0.081-0.195-0.066
				c-0.567,0.108-1.474,0.206-1.706,0.094c-0.063-0.119,0.172-0.672,0.483-1.139c0.041-0.061,0.046-0.139,0.015-0.205
				c-0.031-0.066-0.095-0.111-0.168-0.119c-0.454-0.046-0.936-0.178-1.041-0.282c0.11-0.122,0.556-0.418,0.953-0.68
				c1.212-0.803,3.241-2.147,4.145-3.716c1.187-2.061,1.258-3.449,1.259-3.745c0.851-0.377,1.591-0.787,2.193-1.187
				C172.959,79.181,172.993,79.199,173.032,79.204z M153.373,59.106c-0.125-1.781,0.065-7.182,6.678-8.89
				c0.083-0.022,0.143-0.091,0.154-0.176c0.011-0.084-0.031-0.168-0.105-0.21c-0.024-0.014-0.528-0.31-0.725-1.192
				c1.21,0.484,5.352,2.056,8.874,2.403c4.688,0.461,5.646,1.686,5.84,2.191c0.028,0.072,0.093,0.123,0.17,0.132
				c0.041,0.005,3.881,0.492,5.154,2.36c-0.496-0.08-1.276-0.121-1.774,0.277c-0.088,0.071-0.104,0.199-0.037,0.289
				c0.023,0.031,2.301,3.159,1.193,9.378c-0.636-0.505-1.359-0.502-1.588-0.484c-0.957,0.068-2.667,1.445-3.506,3.336
				c-0.086-1.211,0.133-1.983,0.38-2.851c0.255-0.897,0.544-1.913,0.479-3.566c-0.139-3.538-2.241-5.341-2.33-5.415
				c-0.028-0.024-0.062-0.04-0.099-0.046c-0.365-0.064-0.725-0.092-1.078-0.092c-1.777,0-3.34,0.706-4.03,1.072
				c0.163-0.692,0.662-1.471,0.668-1.48c0.055-0.085,0.041-0.196-0.032-0.266c-0.073-0.069-0.185-0.077-0.267-0.017
				c-1.276,0.928-5.704,1.985-6.789,2.234c0.028-0.876,0.781-1.858,0.789-1.868c0.07-0.09,0.055-0.219-0.033-0.29
				c-0.088-0.072-0.217-0.061-0.291,0.025c-1.719,1.996-4.358,2.518-5.158,2.633c0.104-1.133,0.896-2.224,0.905-2.236
				c0.062-0.085,0.052-0.203-0.024-0.275c-0.076-0.073-0.194-0.077-0.276-0.011C156.415,56.154,154.3,57.873,153.373,59.106z
				 M151.298,71.856c-0.707-0.985-0.919-2.292-0.596-3.681c0.192-0.825,0.524-1.329,0.988-1.498c0.739-0.268,1.612,0.38,1.621,0.387
				c0.011,0.008,0.024,0.011,0.036,0.017c-0.022,2.082,0.036,4.265,0.256,6.16C152.695,73.136,151.858,72.635,151.298,71.856z
				 M154.258,74.786c-1.075-5.578-0.076-15.696-0.066-15.798c0.006-0.059-0.013-0.114-0.048-0.156
				c0.523-0.576,1.204-1.203,1.744-1.677c-0.214,0.479-0.404,1.074-0.404,1.676c0,0.058,0.024,0.114,0.067,0.154
				c0.043,0.04,0.101,0.058,0.159,0.055c0.122-0.01,2.61-0.228,4.673-1.849c-0.142,0.374-0.234,0.792-0.181,1.189
				c0.008,0.058,0.04,0.11,0.087,0.144c0.048,0.033,0.107,0.045,0.165,0.033c0.204-0.045,4.48-0.99,6.518-1.974
				c-0.204,0.419-0.415,0.966-0.415,1.428c0,0.076,0.041,0.146,0.108,0.183c0.067,0.037,0.148,0.034,0.213-0.006
				c0.025-0.016,2.524-1.567,5.126-1.143c0.288,0.265,2.02,1.984,2.141,5.075c0.062,1.586-0.205,2.526-0.463,3.435
				c-0.302,1.062-0.587,2.065-0.286,3.905c0.016,0.097,0.097,0.17,0.196,0.175c0.098,0.002,0.187-0.059,0.213-0.154
				c0.594-2.178,2.584-3.818,3.436-3.879c0.213-0.016,0.95-0.018,1.507,0.59c0.573,0.625,0.755,1.708,0.527,3.133
				c-0.368,2.297-1.615,2.969-2.526,3.46c-0.409,0.22-0.762,0.41-0.934,0.705c-0.172,0.294-0.282,0.721-0.409,1.214
				c-0.255,0.988-0.571,2.217-1.541,3.187c-1.409,1.409-5.329,3.425-9.63,3.493C158.475,81.475,155.119,79.256,154.258,74.786z
				 M154.76,85.064c1.162,0.321,3.885,1.072,5.381-0.309c1.56-1.44,1.896-2.679,1.964-3.037c0.072,0.007,0.145,0.012,0.218,0.018
				c0,0.01-0.003,0.019-0.001,0.028c0.006,0.033,0.408,2.488,0.483,5.091c-0.048,0.016-0.09,0.049-0.115,0.099
				c-0.012,0.018-0.324,0.46-2.804,2.05c-2.101,1.347-4.85,1.051-5.59,0.812l0.774-0.608c0.059-0.047,0.089-0.122,0.077-0.196
				c-0.012-0.075-0.063-0.138-0.133-0.164c-0.222-0.083-0.452-0.199-0.572-0.283c0.42-0.256,0.849-0.803,0.868-0.828
				c0.039-0.05,0.053-0.115,0.039-0.176c-0.015-0.062-0.056-0.114-0.113-0.141c-0.433-0.207-0.854-0.466-1.01-0.616
				c0.45-0.201,0.868-0.439,0.887-0.449c0.052-0.03,0.089-0.08,0.101-0.139c0.012-0.059-0.002-0.12-0.037-0.168
				c-0.271-0.362-0.561-0.802-0.689-1.058C154.57,85.011,154.666,85.038,154.76,85.064z M149.105,90.614
				c-0.231,0.029-0.505-0.072-0.695-0.258c-0.172-0.168-0.255-0.384-0.233-0.608c0.041-0.406,0.782-0.865,1.24-1.058
				c0.1-0.043,0.151-0.154,0.117-0.258c-0.034-0.103-0.142-0.164-0.247-0.138c-0.389,0.093-1.505,0.319-1.979,0.269
				c-0.139-0.016-0.231-0.147-0.283-0.255c-0.175-0.362-0.163-0.969,0.027-1.272c0.164-0.263,1.624-0.339,2.883-0.244
				c0.104,0.005,0.195-0.06,0.219-0.159c0.024-0.099-0.027-0.202-0.121-0.242c-1.09-0.467-2.266-1.206-2.266-1.585
				c0-0.393,0.342-0.915,0.746-1.14c0.102-0.057,0.295-0.138,0.437-0.05c0.521,0.326,1.931,1.734,1.945,1.748
				c0.07,0.07,0.179,0.081,0.262,0.028c0.083-0.054,0.117-0.158,0.082-0.25c-0.247-0.649-0.451-1.475-0.35-1.677
				c0.114-0.228,0.813-0.18,1.36,0.093c0.206,0.103,0.271,0.473,0.334,0.83c0.065,0.366,0.131,0.744,0.363,0.976
				c0.447,0.447,1.444,0.591,1.556,0.606c0.033,0.005,0.064,0,0.093-0.01c0.033,0.047,0.066,0.094,0.103,0.144
				c-0.181,0.096-0.456,0.238-0.729,0.354c-0.192,0.083-0.216,0.232-0.217,0.293c-0.005,0.25,0.352,0.562,1.062,0.926
				c-0.177,0.198-0.436,0.457-0.651,0.564c-0.197,0.098-0.21,0.252-0.207,0.313c0.006,0.108,0.077,0.216,0.209,0.323
				c-0.003,0-0.006,0.001-0.009,0.001c-0.924,0.087-2.643,0.248-3.417,0.665c-0.42,0.226-0.71,0.468-0.944,0.663
				C149.534,90.426,149.344,90.584,149.105,90.614z"/>
			<path fill="#310024" d="M160.673,72.335c-0.092-0.069-0.223-0.051-0.293,0.04c-0.027,0.036-0.66,0.881-0.418,1.693
				c0.137,0.46,0.517,0.804,1.13,1.023c0.023,0.008,0.047,0.012,0.07,0.012c0.086,0,0.166-0.053,0.197-0.139
				c0.039-0.109-0.018-0.229-0.127-0.267c-0.48-0.171-0.772-0.423-0.869-0.747c-0.182-0.607,0.345-1.315,0.35-1.322
				C160.783,72.536,160.765,72.405,160.673,72.335z"/>
			<path fill="#310024" d="M169.443,77.326c1.154-1.434,1.518-2.928,1.518-3.223c0-0.195-0.143-0.246-0.219-0.246
				c-0.069,0-0.134,0.034-0.169,0.082c-0.27,0.255-4.126,1.848-8.058,2.114c-0.296,0.02-0.595,0.03-0.888,0.03
				c-3.383,0-5.455-1.349-5.475-1.363c-0.063-0.042-0.142-0.047-0.209-0.013c-0.067,0.033-0.111,0.1-0.116,0.175
				c-0.003,0.047-0.208,4.723,6.551,5.211c0.28,0.02,0.559,0.031,0.828,0.031C166.5,80.124,168.416,78.602,169.443,77.326z
				 M165.284,77.591c-0.35,0.233-1.994,0.502-2.34,0.389c-0.128-0.09-0.221-0.792-0.211-1.526c0.867-0.068,1.73-0.195,2.555-0.358
				C165.425,76.802,165.427,77.496,165.284,77.591z M162.314,76.482c-0.007,0.411,0.011,0.913,0.107,1.3
				c-0.458-0.098-1.409-0.258-1.994-0.218c0.019-0.378-0.128-0.853-0.235-1.141c0.447,0.049,0.926,0.078,1.434,0.078
				C161.853,76.502,162.084,76.494,162.314,76.482z M157.945,75.959c0.509,0.158,1.104,0.304,1.784,0.405
				c0.003,0.015,0.003,0.031,0.009,0.046c0.204,0.496,0.351,1.149,0.243,1.285c-0.233,0.147-1.736-0.424-1.933-0.67
				C157.963,76.912,157.93,76.414,157.945,75.959z M156.255,75.265c0.271,0.146,0.702,0.354,1.277,0.558
				c-0.018,0.32-0.04,1.157,0.181,1.453c0.22,0.293,1.509,0.845,2.13,0.854c0.006,0,0.012,0,0.018,0c0.001,0,0.002,0,0.003,0
				c-0.03,0.297-0.029,0.695-0.017,1.077C156.833,78.231,156.332,76.115,156.255,75.265z M160.272,79.332
				c-0.021-0.556-0.014-1.171,0.028-1.349c0.333-0.069,1.891,0.118,2.213,0.246c0.119,0.086,0.255,0.749,0.286,1.392
				c0.001,0.027,0.008,0.052,0.019,0.075c-0.135-0.005-0.271-0.011-0.41-0.021C161.592,79.617,160.886,79.497,160.272,79.332z
				 M163.192,79.702c0.015-0.031,0.026-0.065,0.024-0.101c-0.016-0.337-0.059-0.813-0.169-1.188c0.053,0.004,0.108,0.006,0.17,0.006
				c0.711,0,1.927-0.232,2.299-0.48c0.445-0.297,0.284-1.421,0.185-1.928c2.137-0.459,3.957-1.128,4.765-1.534
				c-0.144,0.527-0.519,1.521-1.294,2.51c-0.339-0.409-0.619-0.584-0.831-0.514c-0.015,0.005-1.537,0.516-1.643,1.046
				c-0.072,0.358-0.072,1.366-0.072,1.408c0,0.027,0.006,0.053,0.016,0.077C165.63,79.47,164.476,79.704,163.192,79.702z
				 M167.045,78.804c0.003-0.34,0.017-0.97,0.063-1.198c0.063-0.171,0.854-0.56,1.338-0.726c0.087,0.037,0.289,0.23,0.453,0.434
				c-0.078,0.088-0.153,0.177-0.238,0.264C168.178,78.072,167.638,78.481,167.045,78.804z"/>
			<path fill="#310024" d="M155.078,63.346c0.016,0,0.033-0.002,0.049-0.006c0.016-0.004,0.337-0.08,0.889-0.185
				c0.033,0.44,0.167,0.873,0.404,1.246c0.04,0.063,0.108,0.097,0.177,0.097c0.038,0,0.077-0.011,0.112-0.033
				c0.098-0.062,0.126-0.191,0.065-0.289c-0.208-0.328-0.322-0.711-0.343-1.098c0.542-0.097,1.231-0.207,2.03-0.309
				c0.035,0.348,0.097,0.693,0.191,1.033c0.025,0.093,0.11,0.154,0.202,0.154c0.018,0,0.037-0.002,0.055-0.007
				c0.111-0.03,0.177-0.146,0.146-0.257c-0.088-0.32-0.146-0.646-0.179-0.973c0.53-0.062,1.099-0.119,1.702-0.164
				c0.061,0.37,0.165,0.732,0.317,1.079c0.034,0.079,0.111,0.125,0.192,0.125c0.028,0,0.057-0.006,0.084-0.018
				c0.106-0.046,0.154-0.17,0.108-0.275c-0.131-0.298-0.223-0.616-0.279-0.94c0.769-0.049,1.581-0.078,2.418-0.076
				c0.012,0.375,0.077,0.748,0.203,1.102c0.03,0.086,0.111,0.139,0.197,0.139c0.023,0,0.047-0.004,0.07-0.012
				c0.109-0.039,0.166-0.158,0.127-0.267c-0.109-0.307-0.167-0.631-0.179-0.957c0.685,0.011,1.383,0.044,2.085,0.106
				c0.019,0.274,0.05,0.548,0.1,0.819c0.019,0.101,0.107,0.171,0.205,0.171c0.013,0,0.026-0.001,0.039-0.004
				c0.114-0.021,0.188-0.131,0.167-0.244c-0.044-0.232-0.07-0.466-0.089-0.701c0.662,0.069,1.325,0.164,1.981,0.291l-0.051,1.193
				c-0.005,0.116,0.085,0.213,0.2,0.218c0.003,0,0.006,0,0.009,0c0.111,0,0.204-0.088,0.209-0.2l0.048-1.128
				c0.399,0.086,0.794,0.183,1.184,0.294c0.113,0.033,0.227-0.033,0.259-0.144c0.032-0.111-0.032-0.227-0.144-0.259
				c-0.421-0.12-0.849-0.225-1.281-0.316l0.027-0.637c0.005-0.116-0.085-0.213-0.2-0.218c-0.112-0.008-0.213,0.085-0.218,0.2
				l-0.024,0.574c-0.669-0.127-1.345-0.223-2.019-0.291c-0.004-0.266,0.003-0.533,0.031-0.798c0.012-0.115-0.072-0.218-0.186-0.23
				c-0.116-0.015-0.218,0.072-0.23,0.187c-0.028,0.267-0.036,0.535-0.033,0.803c-0.693-0.059-1.382-0.092-2.057-0.103
				c0.029-0.324,0.104-0.644,0.23-0.945c0.045-0.107-0.006-0.229-0.112-0.274c-0.106-0.044-0.229,0.006-0.274,0.113
				c-0.146,0.35-0.231,0.723-0.262,1.102c-0.86-0.003-1.694,0.027-2.482,0.078c-0.02-0.287-0.012-0.575,0.028-0.857
				c0.016-0.114-0.063-0.22-0.178-0.236c-0.113-0.02-0.22,0.063-0.237,0.178c-0.045,0.314-0.055,0.631-0.033,0.945
				c-0.592,0.045-1.152,0.1-1.675,0.161c-0.006-0.218-0.004-0.436,0.014-0.654c0.01-0.115-0.076-0.216-0.191-0.226
				c-0.112-0.009-0.216,0.076-0.226,0.191c-0.021,0.247-0.021,0.493-0.013,0.739c-0.776,0.098-1.452,0.205-1.992,0.3
				c0.024-0.181,0.068-0.359,0.135-0.528c0.042-0.107-0.01-0.229-0.118-0.271c-0.107-0.043-0.229,0.01-0.272,0.118
				c-0.096,0.243-0.149,0.5-0.17,0.76c-0.613,0.116-0.973,0.2-0.99,0.205c-0.112,0.027-0.181,0.14-0.154,0.253
				C154.898,63.282,154.983,63.346,155.078,63.346z"/>
			<path fill="#6D3417" d="M178.893,59.861c-0.05,0.097-0.11,0.188-0.196,0.262c-0.391,0.337-1.04,0.147-1.363-0.256
				c-0.323-0.403-0.406-0.942-0.478-1.453c-0.14,0.277-0.424,0.476-0.733,0.511c-0.199-1.34-1.056-2.565-2.245-3.213
				c-1.189-0.648-2.684-0.702-3.917-0.142c0.242-0.482,0.357-1.027,0.33-1.566c-2.053,0.621-4.159,1.067-6.288,1.332
				c0.276-0.538,0.386-1.159,0.312-1.759c-1.767,0.773-3.624,1.338-5.521,1.68c0.017-0.418,0.033-0.835,0.05-1.253
				c-0.697,0.292-1.394,0.583-2.092,0.875c0.119-0.181,0.157-0.414,0.101-0.624c-1.574,1.218-2.774,2.905-3.426,4.784
				c0.95-1.227,2.991-2.886,3.092-2.968c0.082-0.066,0.2-0.061,0.276,0.011c0.076,0.072,0.087,0.19,0.024,0.275
				c-0.009,0.012-0.802,1.103-0.905,2.236c0.799-0.115,3.439-0.636,5.158-2.633c0.074-0.086,0.203-0.097,0.291-0.025
				c0.088,0.072,0.102,0.201,0.033,0.29c-0.008,0.011-0.761,0.992-0.789,1.868c1.086-0.249,5.513-1.306,6.789-2.234
				c0.082-0.06,0.194-0.052,0.267,0.017c0.073,0.069,0.087,0.181,0.032,0.266c-0.006,0.009-0.505,0.788-0.668,1.48
				c0.69-0.365,2.253-1.072,4.03-1.072c0.353,0,0.714,0.028,1.078,0.092c0.036,0.007,0.07,0.022,0.099,0.046
				c0.089,0.075,2.192,1.877,2.33,5.415c0.065,1.652-0.224,2.669-0.479,3.566c-0.247,0.868-0.466,1.64-0.38,2.851
				c0.838-1.891,2.548-3.267,3.506-3.336c0.229-0.017,0.952-0.02,1.588,0.484C179.224,63.273,179.148,61.338,178.893,59.861z"/>
			<path fill="#6D3417" d="M169.073,68.608c0.022,0,0.133-0.074,0.224-0.393c0.073-0.256,0.097-0.543,0.081-0.788
				c-1.011,0.044-2.018,0.176-3.003,0.407c0.049-0.175,0.097-0.35,0.146-0.525c-0.777,0.043-1.546,0.244-2.244,0.589
				c0.124-0.181,0.207-0.391,0.238-0.608c-0.5,0.397-1.052,0.728-1.636,0.986c0.118,0.198,0.287,0.378,0.457,0.505
				c0.017,0.013,0.127,0.076,0.633,0.076c0.558,0,1.367-0.077,2.15-0.152c0.811-0.077,1.65-0.157,2.257-0.157
				C168.682,68.547,168.909,68.567,169.073,68.608L169.073,68.608z"/>
			<path fill="#6D3417" d="M155.094,69.458c0.468-0.388,1.116-0.574,1.989-0.574c0.434,0,0.861,0.044,1.237,0.082
				c0.291,0.03,0.542,0.055,0.738,0.055c0.233,0,0.281-0.039,0.283-0.041c0.068-0.139,0.13-0.425,0.108-0.733
				c-0.631-0.077-1.243-0.307-1.764-0.671c-0.012,0.2,0.051,0.404,0.175,0.561c-0.766-0.087-1.531-0.175-2.297-0.262
				c0.208,0.167,0.417,0.334,0.625,0.501c-0.452,0.016-0.914,0.036-1.348,0.152C154.881,69.027,155.013,69.365,155.094,69.458z"/>
			<path fill="#58944F" d="M179.274,69.325c0.228-1.424,0.046-2.508-0.527-3.133c-0.557-0.608-1.294-0.606-1.507-0.59
				c-0.852,0.061-2.842,1.702-3.436,3.879c-0.026,0.095-0.115,0.156-0.213,0.154c-0.098-0.005-0.18-0.078-0.196-0.175
				c-0.3-1.84-0.015-2.843,0.286-3.905c0.258-0.909,0.525-1.849,0.463-3.435c-0.122-3.091-1.853-4.811-2.141-5.075
				c-2.602-0.424-5.101,1.127-5.126,1.143c-0.065,0.04-0.146,0.043-0.213,0.006c-0.067-0.037-0.108-0.107-0.108-0.183
				c0-0.462,0.211-1.009,0.415-1.428c-2.038,0.984-6.314,1.93-6.518,1.974c-0.057,0.012-0.117,0-0.165-0.033
				c-0.048-0.034-0.08-0.086-0.087-0.144c-0.053-0.397,0.04-0.815,0.181-1.189c-2.063,1.62-4.551,1.839-4.673,1.849
				c-0.058,0.003-0.116-0.015-0.159-0.055c-0.043-0.04-0.067-0.095-0.067-0.154c0-0.602,0.19-1.196,0.404-1.676
				c-0.54,0.474-1.221,1.101-1.744,1.677c0.035,0.042,0.054,0.098,0.048,0.156c-0.001,0.013-0.02,0.199-0.048,0.519
				c0.287-0.169,0.555-0.368,0.792-0.602c-0.046,0.356-0.092,0.713-0.138,1.069c1.54-0.225,3.036-0.742,4.386-1.515
				c-0.064,0.314-0.128,0.627-0.192,0.941c2.104-0.046,4.199-0.515,6.122-1.371c-0.077,0.484-0.273,0.949-0.566,1.342
				c2.004,0.357,4.11,0.124,5.988-0.663c0.005,0.332-0.104,0.665-0.305,0.931c0.472-0.258,1.096-0.017,1.426,0.408
				c0.33,0.425,0.429,0.982,0.479,1.518c0.193,2.068-0.204,4.189-1.134,6.046c0.393-0.22,0.786-0.44,1.179-0.661
				c-0.588,0.734-0.565,1.792-0.301,2.694c0.264,0.902,0.734,1.736,0.965,2.647c0.684,2.692-0.805,5.425-2.388,7.708c0,0,0,0,0,0
				c1.538-0.663,2.749-1.452,3.408-2.111c0.97-0.969,1.286-2.199,1.541-3.187c0.127-0.493,0.237-0.92,0.409-1.214
				c0.172-0.295,0.525-0.485,0.934-0.705C177.659,72.294,178.907,71.622,179.274,69.325z"/>
			<path fill="#58944F" d="M152.534,72.915c0.335,0.169,0.696,0.283,1.069,0.327c-0.22-1.896-0.278-4.079-0.256-6.16
				c-0.012-0.006-0.025-0.009-0.036-0.017c-0.009-0.007-0.882-0.655-1.621-0.387c-0.464,0.169-0.796,0.672-0.988,1.498
				c-0.06,0.259-0.096,0.514-0.119,0.766c0.054-0.098,0.115-0.191,0.188-0.278c0.282-0.334,0.772-0.536,1.168-0.351
				c0.397,0.185,0.551,0.66,0.663,1.083c0.249,0.935,0.497,1.931,0.206,2.853C152.736,72.473,152.634,72.694,152.534,72.915z"/>
			<path fill="#310024" d="M177.543,66.935c-0.451-0.308-0.979-0.108-1.316,0.253c-0.301,0.322-0.643,0.834-0.778,1.254
				c-0.014,0.043,0.022,0.075,0.061,0.08c0.682,0.081,0.821-1.168,1.465-1.239c0.489-0.054,0.706,0.559,0.748,0.936
				c0.048,0.43-0.065,0.796-0.219,1.189c-0.027,0.07,0.056,0.153,0.126,0.126c0.469-0.182,0.575-0.764,0.588-1.213
				C178.233,67.787,177.984,67.236,177.543,66.935z"/>
			<path fill="#310024" d="M176.943,68.771c-0.035-0.044-0.113-0.061-0.165-0.044c-0.032,0.011-0.054,0.016-0.075,0.044
				c-0.088,0.115-0.024,0.238,0.007,0.366c0.08,0.324-0.044,0.712-0.142,1.018c-0.165,0.519-0.474,0.977-0.67,1.484
				c-0.036,0.093,0.079,0.15,0.15,0.116C176.884,71.359,177.56,69.551,176.943,68.771z"/>
			<path fill="#310024" d="M152.281,68.051c-0.289-0.013-0.536,0.187-0.711,0.397c-0.213,0.255-0.346,0.552-0.382,0.883
				c-0.026,0.246,0.082,0.647,0.398,0.61c0.048-0.006,0.086-0.035,0.087-0.087c0.004-0.15-0.051-0.292-0.043-0.443
				c0.01-0.185,0.123-0.372,0.223-0.521c0.083-0.123,0.211-0.262,0.35-0.316c0.035-0.014,0.058-0.009,0.062-0.011
				c0.06,0.053,0.095,0.123,0.152,0.18c0.098,0.098,0.321,0.068,0.342-0.09C152.801,68.355,152.592,68.064,152.281,68.051z"/>
			<path fill="#310024" d="M152.538,71.027c-0.168-0.413-0.207-0.839-0.301-1.269c-0.022-0.1-0.155-0.083-0.185,0
				c-0.288,0.789,0.059,2.002,0.809,2.414c0.073,0.04,0.177-0.026,0.147-0.113C152.883,71.696,152.682,71.382,152.538,71.027z"/>
			<path fill="#FFFFFF" d="M157.575,71.779c0.005,0.041,0.008,0.082,0.021,0.122c0.044,0.135,0.201,0.213,0.33,0.134
				c0.077-0.047,0.119-0.102,0.144-0.189C158.178,71.466,157.532,71.431,157.575,71.779z"/>
			<path fill="#FFFFFF" d="M166.507,70.984c-0.062,0.091-0.094,0.227-0.009,0.316c0.122,0.128,0.277,0.081,0.399-0.015
				C167.161,71.077,166.725,70.662,166.507,70.984z"/>
			<path fill="#6D3417" d="M175.604,55.461c-0.117-0.1-0.274,0.023-0.209,0.161c0.16,0.336,0.356,0.642,0.484,0.994
				c0.121,0.332,0.139,0.706,0.295,1.022c0.039,0.078,0.168,0.078,0.207,0C176.713,56.97,176.112,55.897,175.604,55.461z"/>
			<path fill="#6D3417" d="M168.644,53.32c-0.417-0.063-0.789,0.129-1.178,0.27c-0.532,0.192-1.062,0.393-1.613,0.525
				c-0.13,0.031-0.104,0.247,0.032,0.235c0.518-0.043,1.021-0.134,1.52-0.281c0.437-0.129,0.952-0.202,1.305-0.502
				C168.789,53.5,168.752,53.336,168.644,53.32z"/>
			<path fill="#6D3417" d="M170.354,53.214c-0.096-0.349-0.689-0.096-0.895-0.012c-0.23,0.094-0.149,0.451,0.105,0.383
				c0.148-0.04,0.296-0.062,0.448-0.081C170.154,53.487,170.408,53.411,170.354,53.214z"/>
			<path fill="#6D3417" d="M162.955,52.979c-0.432,0.038-0.864,0.272-1.279,0.399c-0.527,0.161-1.072,0.28-1.61,0.394
				c-0.125,0.026-0.098,0.232,0.03,0.223c0.511-0.037,1.011-0.097,1.513-0.199c0.463-0.094,1.12-0.207,1.442-0.586
				C163.119,53.129,163.083,52.968,162.955,52.979z"/>
			<path fill="#6D3417" d="M163.881,52.652c-0.052,0.016-0.105,0.03-0.159,0.026c-0.292-0.021-0.29,0.433,0,0.453
				c0.161,0.011,0.303-0.05,0.373-0.201C164.16,52.791,164.054,52.598,163.881,52.652z"/>
			<path fill="#6D3417" d="M156.228,53.629c-0.245,0.065-0.434,0.278-0.597,0.461c-0.168,0.189-0.354,0.36-0.442,0.603
				c-0.026,0.07,0.053,0.142,0.121,0.121c0.247-0.078,0.424-0.264,0.613-0.432c0.183-0.163,0.396-0.36,0.451-0.607
				C156.392,53.686,156.318,53.605,156.228,53.629z"/>
			<path fill="#6D3417" d="M172.833,54.434c-0.214-0.119-0.428-0.174-0.672-0.186c-0.157-0.008-0.157,0.236,0,0.244
				c0.201,0.01,0.411,0.045,0.605,0.101C172.861,54.621,172.92,54.482,172.833,54.434z"/>
			<path fill="#A85733" d="M168.538,51.874c-1.957-0.859-4.259-1.012-6.336-1.459c-0.054-0.012-0.091,0.064-0.039,0.092
				c0.842,0.453,1.775,0.59,2.697,0.804c1.195,0.277,2.367,0.806,3.605,0.831C168.6,52.145,168.673,51.933,168.538,51.874z"/>
			<path fill="#A85733" d="M170.94,52.035c-0.126-0.143-0.331-0.128-0.508-0.119c-0.236,0.012-0.475,0.019-0.711,0.005
				c-0.175-0.011-0.191,0.24-0.039,0.291c0.221,0.075,0.438,0.117,0.67,0.139c0.196,0.019,0.446,0.052,0.589-0.109
				C170.995,52.179,170.995,52.097,170.94,52.035z"/>
			<path fill="#A85733" d="M158.701,51.242c-0.332,0.041-0.623,0.278-0.915,0.432c-0.316,0.166-0.698,0.325-0.906,0.628
				c-0.049,0.071,0.031,0.143,0.101,0.131c0.346-0.06,0.689-0.27,1.003-0.421c0.29-0.14,0.674-0.274,0.828-0.577
				C158.851,51.359,158.805,51.229,158.701,51.242z"/>
			<path fill="#A85733" d="M176.727,54.589c-0.094-0.217-0.356-0.347-0.556-0.452c-0.242-0.127-0.501-0.166-0.768-0.109
				c-0.152,0.032-0.118,0.276,0.037,0.27c0.254-0.011,0.47,0.093,0.682,0.222c0.166,0.101,0.302,0.232,0.503,0.247
				C176.724,54.774,176.759,54.663,176.727,54.589z"/>
			<path fill="#58944F" d="M171.826,73.515c-0.12,0.793-0.266,1.59-0.413,2.379c-0.134,0.718-0.436,1.399-0.529,2.12
				c-0.023,0.18,0.218,0.191,0.301,0.081c0.915-1.204,0.792-3.116,0.898-4.545C172.094,73.404,171.848,73.369,171.826,73.515z"/>
			<path fill="#58944F" d="M170.117,78.896c-0.089,0.136-0.174,0.279-0.244,0.426c-0.063,0.132-0.142,0.285-0.124,0.436
				c0.008,0.07,0.065,0.128,0.141,0.107c0.316-0.087,0.415-0.526,0.551-0.78C170.554,78.871,170.249,78.694,170.117,78.896z"/>
			<path fill="#58944F" d="M171.47,62.56c-0.064-0.181-0.348-0.107-0.29,0.08c0.095,0.308,0.071,0.602,0.018,0.916
				c-0.04,0.242-0.121,0.506-0.044,0.746c0.028,0.087,0.142,0.103,0.191,0.025c0.153-0.239,0.169-0.563,0.204-0.84
				C171.588,63.172,171.576,62.86,171.47,62.56z"/>
			<path fill="#58944F" d="M171.063,65.529c-0.028-0.226-0.35-0.183-0.308,0.042c0.022,0.12,0.007,0.255,0.005,0.377
				c-0.001,0.057,0.066,0.097,0.115,0.066C171.054,65.901,171.088,65.729,171.063,65.529z"/>
			<path fill="#58944F" d="M162.355,59.57c-0.166-0.067-0.354,0.026-0.518,0.071c-0.199,0.054-0.397,0.111-0.592,0.177
				c-0.167,0.056-0.098,0.314,0.073,0.265c0.198-0.057,0.398-0.105,0.599-0.152c0.166-0.038,0.372-0.045,0.484-0.186
				C162.453,59.679,162.432,59.601,162.355,59.57z"/>
			<path fill="#58944F" d="M163.49,59.17c-0.204,0.029-0.368,0.198-0.563,0.262c-0.109,0.036-0.091,0.2,0.027,0.201
				c0.24,0.003,0.586-0.083,0.64-0.359C163.608,59.206,163.556,59.161,163.49,59.17z"/>
			<path fill="#58944F" d="M169.41,59.702c-0.333-0.388-1.167,0.115-1.573,0.167c-0.278,0.035-0.288,0.415,0,0.44
				c0.277,0.024,0.532-0.042,0.797-0.116c0.239-0.066,0.606-0.082,0.775-0.276C169.468,59.852,169.467,59.768,169.41,59.702z"/>
			<path fill="#58944F" d="M171.442,70.03c-0.056-0.15-0.257-0.089-0.235,0.065c0.037,0.263,0.135,0.543,0.346,0.716
				c0.048,0.039,0.121,0.016,0.123-0.051C171.683,70.496,171.532,70.27,171.442,70.03z"/>
			<path fill="#A8CD7E" d="M154.555,60.896c-0.04-0.107-0.179-0.109-0.219,0c-0.124,0.342-0.091,0.727-0.096,1.087
				c-0.007,0.464-0.079,0.92-0.045,1.384c0.008,0.109,0.146,0.153,0.207,0.056c0.216-0.341,0.258-0.687,0.272-1.085
				C154.691,61.878,154.718,61.331,154.555,60.896z"/>
			<path fill="#A8CD7E" d="M154.513,64.955c-0.023-0.147-0.038-0.295-0.079-0.438c-0.033-0.117-0.237-0.137-0.256,0
				c-0.021,0.146-0.017,0.287-0.011,0.435c0.006,0.13,0.022,0.326,0.157,0.386c0.046,0.021,0.085,0.016,0.124-0.016
				C154.55,65.239,154.532,65.073,154.513,64.955z"/>
			<path fill="#A8CD7E" d="M155.328,75.156c-0.124-0.474-0.253-0.948-0.356-1.426c-0.031-0.142-0.236-0.079-0.214,0.059
				c0.067,0.427,0.127,0.854,0.211,1.278c0.082,0.415,0.117,0.904,0.365,1.255c0.044,0.062,0.174,0.073,0.187-0.024
				C155.575,75.906,155.426,75.533,155.328,75.156z"/>
			<path fill="#58944F" d="M167.135,82.863c0.129-0.452,0.223-0.938,0.236-1.426c-0.582,0.125-1.188,0.218-1.811,0.28
				C166.01,82.191,166.547,82.58,167.135,82.863z"/>
			<g>
				<path fill="#58944F" d="M159.965,95.968c0.103,0.042,0.196,0.062,0.267,0.048c0.438-0.088,1.275-0.99,1.71-1.549
					c-0.013-0.133-0.032-0.266-0.06-0.397c-0.726,0.538-1.387,1.16-1.979,1.843c0.019,0.011,0.039,0.022,0.053,0.04
					C159.96,95.958,159.961,95.963,159.965,95.968z"/>
				<path fill="#58944F" d="M166.741,92.034c-0.413-0.207-0.312-0.949-0.196-1.429c-0.016,0.003-0.036,0.005-0.053,0.008
					c-1.024,1.589-2.891,2.633-3.573,4.409c-0.153,0.398-0.243,0.823-0.449,1.195c0.26,0.043,0.552,0.031,0.768-0.104
					c0.235-0.147,0.365-0.641,0.48-1.076c0.111-0.423,0.217-0.823,0.429-1.07c0.218-0.255,0.697-0.571,1.252-0.938
					c0.459-0.304,0.968-0.641,1.381-0.979C166.767,92.043,166.754,92.04,166.741,92.034z"/>
			</g>
			<g>
				<path fill="#58944F" d="M148.976,89.836c-0.191,0.171-0.371,0.361-0.587,0.495c0.008,0.008,0.013,0.017,0.021,0.025
					c0.19,0.186,0.464,0.287,0.695,0.258c0.239-0.03,0.429-0.188,0.692-0.407c0.233-0.195,0.524-0.437,0.944-0.663
					c0.773-0.417,2.493-0.578,3.417-0.665c0.003,0,0.006-0.001,0.009-0.001c-0.132-0.107-0.204-0.215-0.209-0.323
					c-0.003-0.061,0.011-0.215,0.207-0.313c0.214-0.107,0.474-0.365,0.651-0.564c-0.053-0.027-0.101-0.054-0.15-0.081
					c-0.605,0.236-1.218,0.449-1.841,0.628C151.473,88.612,150.021,88.899,148.976,89.836z"/>
				<path fill="#58944F" d="M149.224,88.308c0.089-0.198,0.102-0.414-0.026-0.588c-0.759,0.129-1.541,0.116-2.295-0.034
					c0,0.223,0.039,0.45,0.122,0.622c0.052,0.108,0.143,0.239,0.283,0.255C147.759,88.61,148.789,88.408,149.224,88.308z"/>
			</g>
			<path fill="#58944F" d="M164.076,92.477c-0.449,0.166-0.744,0.759-0.97,1.149c-0.044,0.076,0.068,0.139,0.117,0.068
				c0.158-0.229,0.344-0.424,0.546-0.614c0.163-0.153,0.325-0.298,0.393-0.517C164.176,92.515,164.126,92.459,164.076,92.477z"/>
			<path fill="#58944F" d="M165.041,91.817c-0.006-0.036-0.044-0.072-0.079-0.079c-0.224-0.049-0.4,0.181-0.501,0.35
				c-0.084,0.141,0.086,0.324,0.23,0.23C164.858,92.207,165.077,92.043,165.041,91.817z"/>
			<path fill="#58944F" d="M152.275,87.877c-0.409-0.174-1.142-0.042-1.477,0.252c-0.042,0.037-0.008,0.109,0.045,0.108
				c0.258-0.004,0.516-0.079,0.773-0.11c0.233-0.028,0.443-0.024,0.66-0.121C152.323,87.984,152.324,87.898,152.275,87.877z"/>
			<path fill="#58944F" d="M153.346,87.599c-0.163-0.061-0.336,0.008-0.485,0.076c-0.161,0.074-0.039,0.293,0.113,0.267
				c0.124-0.022,0.251,0.002,0.372-0.038c0.049-0.016,0.101-0.056,0.111-0.111c0.002-0.014,0.005-0.028,0.006-0.042
				C153.464,87.677,153.411,87.624,153.346,87.599z"/>
			<path fill="#58944F" d="M149.633,87.473c-0.097,0.012-0.142,0.172-0.025,0.188c0.105,0.015,0.246,0.089,0.341,0.016
				c0.025-0.019,0.044-0.048,0.033-0.081C149.935,87.457,149.757,87.458,149.633,87.473z"/>
			<path fill="#58944F" d="M171.858,108.412c0.897-0.512,1.501-0.709,1.987-0.868c0.295-0.096,0.529-0.172,0.75-0.295
				c0.461-0.256,0.586-2.827,0.183-3.768c-0.002-0.004-0.001-0.009-0.003-0.013c-0.183-0.19-0.441-0.451-0.533-0.48
				c-0.092,0.04-0.347,0.496-0.51,0.959c-0.024,0.068-0.081,0.119-0.151,0.134c-0.069,0.015-0.143-0.005-0.194-0.056
				c-0.361-0.361-0.808-0.763-1.029-0.913c-0.01,0.064-0.019,0.144-0.027,0.209c-0.037,0.327-0.087,0.775-0.357,1.045
				c-0.035,0.034-0.073,0.061-0.112,0.082c0.33-0.001,0.666-0.22,0.644-0.548c0.568,0.963,0.366,2.312-0.46,3.065
				c-0.431,0.393-0.984,0.62-1.525,0.839c-0.703,0.284-1.413,0.571-2.16,0.696c-0.414,0.069-0.843,0.083-1.257,0.024
				C168.242,109.83,170.743,109.049,171.858,108.412z"/>
			<path fill="#58944F" d="M161.463,101.229c0.01-0.216,0.025-0.53-0.001-0.655c-0.094,0.001-0.277,0.087-0.393,0.141
				c-0.176,0.083-0.342,0.161-0.501,0.161c-0.093,0-0.174-0.042-0.224-0.114c-0.108-0.157-0.027-0.369,0.095-0.69
				c0.062-0.162,0.191-0.499,0.161-0.588c-0.031-0.024-0.129-0.039-0.248-0.049c-0.243,0.333-0.484,0.666-0.804,0.923
				c-0.817,0.657-2.097,0.647-2.904-0.022c-0.843-0.699-1.085-1.892-1.717-2.778c-0.159,0.096-0.32,0.237-0.485,0.439
				c-0.063,0.077-0.087,0.544,0.54,1.773c0.943,1.847,2.461,3.696,3.03,3.696c0.005,0,0.01,0,0.015-0.001
				c1.036-0.061,3.189-1.497,3.424-1.656C161.446,101.646,161.452,101.453,161.463,101.229z"/>
			<path fill="#58944F" d="M171.698,106.543c-0.277-0.092-0.544,0.169-0.772,0.305c-0.358,0.212-0.712,0.421-1.056,0.654
				c-0.053,0.036-0.041,0.143,0.036,0.134c0.361-0.041,0.673-0.156,0.996-0.32c0.265-0.134,0.805-0.331,0.861-0.657
				C171.773,106.606,171.75,106.56,171.698,106.543z"/>
			<path fill="#58944F" d="M172.396,105.579c-0.293,0.07-0.419,0.328-0.566,0.564c-0.088,0.141,0.107,0.278,0.222,0.172
				c0.2-0.183,0.369-0.371,0.443-0.637C172.512,105.618,172.455,105.565,172.396,105.579z"/>
			<path fill="#58944F" d="M157.425,100.099c-0.11-0.08-0.215-0.153-0.314-0.247c-0.165-0.157-0.33-0.333-0.542-0.425
				c-0.106-0.046-0.22,0.075-0.129,0.168c0.18,0.183,0.345,0.379,0.529,0.558c0.132,0.128,0.38,0.368,0.575,0.246
				c0.039-0.025,0.059-0.07,0.047-0.116C157.565,100.187,157.502,100.154,157.425,100.099z"/>
			<path fill="#58944F" d="M158.48,100.484c-0.084-0.082-0.209-0.047-0.299-0.119c-0.118-0.094-0.28,0.056-0.17,0.17
				c0.111,0.114,0.38,0.248,0.482,0.05C158.51,100.551,158.508,100.511,158.48,100.484z"/>
			<path fill="#A8CD7E" d="M151.2,70.451c-0.091-0.227-0.17-0.491-0.162-0.737c0.004-0.136-0.189-0.127-0.205,0
				c-0.034,0.272,0.034,0.548,0.121,0.804c0.064,0.189,0.164,0.512,0.4,0.532c0.041,0.004,0.084-0.04,0.081-0.081
				C151.418,70.788,151.267,70.618,151.2,70.451z"/>
			<path fill="#A8CD7E" d="M151.597,71.383c-0.07-0.043-0.176,0.012-0.171,0.098c0.008,0.127,0.055,0.241,0.16,0.314
				c0.081,0.056,0.22-0.017,0.208-0.119C151.779,71.548,151.707,71.451,151.597,71.383z"/>
			<path fill="#A8CD7E" d="M152.09,84.183c-0.083-0.101-0.221,0.011-0.2,0.117c0.038,0.194,0.084,0.386,0.117,0.582
				c0.028,0.17,0.031,0.349,0.173,0.468c0.033,0.028,0.085,0.035,0.117,0C152.56,85.06,152.3,84.44,152.09,84.183z"/>
			<path fill="#A8CD7E" d="M152.597,85.678c-0.141-0.045-0.224,0.163-0.099,0.235c0.098,0.056,0.368,0.29,0.468,0.12
				C153.079,85.839,152.717,85.717,152.597,85.678z"/>
			<path fill="#A8CD7E" d="M160.403,91.818c-0.114-0.139-0.312-0.118-0.473-0.092c-0.203,0.033-0.458,0.053-0.628,0.176
				c-0.071,0.052-0.059,0.148,0.023,0.179c0.18,0.069,0.395,0.014,0.582,0.001c0.171-0.012,0.364,0.014,0.496-0.113
				C160.448,91.926,160.44,91.862,160.403,91.818z"/>
			<path fill="#A8CD7E" d="M162.592,90.212c-0.169-0.088-0.369-0.085-0.552-0.134c-0.182-0.049-0.36-0.102-0.549-0.118
				c-0.091-0.008-0.09,0.116-0.02,0.146c0.301,0.125,0.805,0.403,1.121,0.216C162.631,90.297,162.635,90.234,162.592,90.212z"/>
			<path fill="#A8CD7E" d="M163.331,90.08c-0.089-0.045-0.167,0.001-0.26-0.002c-0.106-0.004-0.133,0.172-0.026,0.188
				c0.128,0.02,0.293,0.021,0.312-0.139C163.36,90.109,163.347,90.087,163.331,90.08z"/>
			<path fill="#A8CD7E" d="M157.094,98.643c-0.084-0.156-0.232-0.214-0.388-0.284c-0.188-0.084-0.39-0.157-0.567-0.261
				c-0.082-0.048-0.178,0.07-0.103,0.133c0.151,0.128,0.295,0.249,0.467,0.349c0.162,0.094,0.329,0.207,0.523,0.181
				C157.085,98.753,157.125,98.7,157.094,98.643z"/>
			<path fill="#A8CD7E" d="M157.851,98.927c-0.103-0.125-0.281-0.106-0.425-0.082c-0.08,0.014-0.061,0.147,0.019,0.141
				c0.126-0.008,0.248,0.036,0.372,0.023C157.86,99.005,157.879,98.961,157.851,98.927z"/>
			<path fill="#A8CD7E" d="M168.658,106.727c-0.16-0.068-0.32-0.022-0.473,0.053c-0.198,0.097-0.415,0.186-0.592,0.319
				c-0.11,0.083-0.098,0.323,0.081,0.301c0.189-0.024,0.355-0.103,0.526-0.182c0.174-0.081,0.41-0.156,0.496-0.344
				C168.719,106.826,168.716,106.752,168.658,106.727z"/>
			<path fill="#A8CD7E" d="M169.333,106.251c-0.123,0.042-0.207,0.134-0.312,0.206c-0.101,0.069-0.009,0.232,0.097,0.166
				c0.12-0.076,0.249-0.155,0.287-0.3C169.416,106.282,169.376,106.236,169.333,106.251z"/>
			<path fill="#C2B967" d="M168.797,70.598c-0.043-0.011-0.153-0.03-0.402-0.03c-0.084,0-0.175,0.002-0.27,0.006
				c0.029,0.021,0.053,0.044,0.064,0.071c0.118,0.281,0.149,0.917-0.377,1.217c-0.044,0.27-0.124,0.531-0.262,0.767
				c-0.454,0.775-1.492,1.103-2.352,0.844c-0.533-0.161-0.987-0.517-1.315-0.968c0.009,0.015,0.016,0.029,0.025,0.044
				c0.216,0.353,1.011,1.505,2.198,1.505c0.136,0,0.274-0.016,0.411-0.047c0.973-0.22,1.791-0.906,2.189-1.836
				C168.958,71.579,168.992,70.969,168.797,70.598z"/>
			<path fill="#C2B967" d="M157.321,74.158c0.059,0,0.12-0.005,0.18-0.017c0.879-0.16,1.515-1.014,1.792-1.697
				c0.193-0.475,0.179-0.771,0.126-0.846c-0.017-0.021-0.081-0.057-0.209-0.091c0.094,0.324,0.035,1.027-0.837,1.054
				c-0.117,0.257-0.273,0.491-0.485,0.676c-0.405,0.353-1.051,0.469-1.483,0.15c-0.264-0.195-0.407-0.508-0.539-0.808
				c-0.048-0.108-0.095-0.216-0.143-0.324c0.015,0.123,0.044,0.261,0.093,0.413C156.047,73.386,156.616,74.158,157.321,74.158
				L157.321,74.158z"/>
			<path fill="#C2B967" d="M162.733,76.454c-0.003,0.233,0.005,0.461,0.02,0.669c0.112-0.202,0.313-0.363,0.533-0.445
				c0.332-0.124,0.698-0.108,1.052-0.09c0.162,0.008,0.341,0.024,0.451,0.143c0.127,0.137,0.107,0.354,0.051,0.532
				c-0.066,0.209-0.175,0.402-0.31,0.574c0.337-0.073,0.629-0.161,0.754-0.244c0.144-0.096,0.142-0.789,0.005-1.496
				C164.463,76.259,163.6,76.386,162.733,76.454z"/>
			<path fill="#C2B967" d="M168.899,77.314c-0.164-0.204-0.366-0.397-0.453-0.434c-0.097,0.033-0.206,0.075-0.318,0.123
				c0.045,0.043,0.084,0.092,0.106,0.15c0.057,0.149,0.034,0.319-0.025,0.467c-0.158,0.395-0.581,0.668-1.006,0.647
				c-0.047-0.002-0.096-0.007-0.145-0.011c-0.007,0.2-0.011,0.401-0.012,0.548c0.594-0.323,1.133-0.731,1.616-1.226
				C168.746,77.491,168.821,77.402,168.899,77.314z"/>
			<path fill="#C2B967" d="M160.272,79.332c0.614,0.164,1.321,0.285,2.136,0.343c0.138,0.01,0.274,0.016,0.41,0.021
				c-0.01-0.023-0.017-0.048-0.019-0.075c-0.031-0.643-0.167-1.306-0.286-1.392c-0.091-0.036-0.283-0.077-0.516-0.116
				c0.178,0.208,0.211,0.539,0.055,0.768c-0.169,0.248-0.495,0.342-0.795,0.342c-0.352,0-0.701-0.11-0.995-0.303
				C160.263,79.057,160.266,79.196,160.272,79.332z"/>
			<path fill="#C2B967" d="M159.729,76.364c-0.68-0.101-1.275-0.247-1.784-0.405c-0.005,0.162-0.004,0.328,0.003,0.481
				c0.32-0.152,0.687-0.22,1.023-0.115c0.386,0.12,0.698,0.513,0.636,0.912c-0.023,0.148-0.094,0.283-0.184,0.404
				c0.263,0.071,0.481,0.102,0.558,0.054c0.107-0.136-0.039-0.79-0.243-1.285C159.732,76.395,159.731,76.379,159.729,76.364z"/>
			<path fill="#A8CD7E" d="M160.965,72.781c-0.176,0.154-0.585,0.434-0.414,0.714c0.061,0.1,0.249,0.098,0.271-0.035
				c0.018-0.108,0.027-0.2,0.076-0.301c0.053-0.11,0.115-0.211,0.155-0.327C161.071,72.779,161.002,72.749,160.965,72.781z"/>
			<path fill="#A8CD7E" d="M160.894,73.903c-0.017-0.048-0.045-0.092-0.06-0.14c-0.034-0.113-0.187-0.107-0.223,0
				c-0.035,0.103-0.023,0.195,0.058,0.27C160.762,74.119,160.942,74.037,160.894,73.903z"/>
			<path fill="#8A6747" d="M167.93,97.652c-0.027-0.028-0.05-0.059-0.078-0.086c-0.126-0.121-0.265-0.235-0.431-0.291
				c-0.161-0.054-0.336-0.049-0.506-0.034c-0.701,0.063-1.377,0.288-2.044,0.512c-0.753,0.252-1.507,0.505-2.26,0.757
				c0.029-0.162,0.057-0.325,0.086-0.487c-0.971,0.277-1.943,0.555-2.914,0.832c0.041,0.001,0.081,0.002,0.117,0.003
				c0.57,0.012,0.928,0.035,1.087,0.248c0.175,0.233,0.03,0.612-0.11,0.979c-0.02,0.051-0.043,0.113-0.065,0.172
				c0.042-0.019,0.086-0.039,0.125-0.058c0.255-0.12,0.544-0.256,0.796-0.13c0.237,0.118,0.22,0.486,0.194,1.042
				c-0.01,0.224-0.029,0.615,0.008,0.78c0.113-0.054,0.22-0.102,0.332-0.152c0.449-0.199,0.958-0.426,1.843-1.102
				c0.356-0.272,0.831-0.682,1.333-1.116C166.839,98.313,167.532,97.759,167.93,97.652z"/>
			<path fill="#8A6747" d="M175.132,103.236c0.092,0.095,0.209,0.218,0.31,0.314c-0.038-4.728-1.075-8.601-1.085-8.641
				c0-0.002,0-0.003,0-0.005c-0.418-0.264-0.83-0.59-1.076-0.793l-0.372,0.956c-0.02,0.052-0.061,0.094-0.113,0.117
				c-0.052,0.022-0.11,0.023-0.162,0.001l-1.286-0.526c-0.121,0.384-0.408,1.094-0.908,1.219c-0.507,0.127-1.261-0.478-1.64-0.822
				l-0.023,0.042c0.477,0.545,0.953,1.09,1.43,1.635c0.157,0.179,0.339,0.371,0.576,0.388c0.405,0.028,0.639-0.441,0.761-0.828
				c0.288-0.138,0.647,0.036,0.823,0.302c0.176,0.266,0.215,0.597,0.25,0.914c0.162,1.495,0.324,2.991,0.486,4.486
				c0.045,0.411,0.087,0.828,0.058,1.238c0.103,0.093,0.202,0.187,0.291,0.272c0.197-0.469,0.503-1.002,0.874-0.927
				C174.53,102.619,174.765,102.855,175.132,103.236z"/>
			<path fill="#751C08" d="M174.567,85.011c0.875-2.532,0.269-4.075-0.171-4.77c-0.372-0.588-0.894-0.985-1.364-1.038
				c-0.04-0.004-0.073-0.023-0.103-0.046c-0.289,0.192-0.611,0.386-0.959,0.577c0.869,2.044,0.671,4.518-0.538,6.385
				c0.125-0.014,0.251-0.028,0.377-0.042c-0.559,2.016-2.377,3.386-4.081,4.6c-0.287,0.204-0.574,0.409-0.861,0.613
				c-0.01,0.201,0.011,0.343,0.063,0.369c0.226,0.113,0.691-0.125,0.88-0.257c0.066-0.046,0.153-0.051,0.223-0.011
				c0.07,0.04,0.111,0.116,0.106,0.197c-0.016,0.226,0.009,0.611,0.111,0.721C168.747,92.201,173.3,88.676,174.567,85.011z"/>
			<path fill="#751C08" d="M154.296,89.817c0.74,0.239,3.489,0.535,5.59-0.812c2.48-1.59,2.792-2.032,2.804-2.05
				c0.025-0.05,0.067-0.083,0.115-0.099c-0.024-0.827-0.081-1.638-0.148-2.362c-0.034,0.038-0.068,0.075-0.102,0.112
				c-0.68,0.733-1.412,1.417-2.19,2.045c-0.479,0.386-1.078,0.772-1.668,0.596c0.137-0.158,0.22-0.362,0.234-0.571
				c-1.241,0.597-2.548,1.056-3.888,1.371c-0.164,0.176-0.383,0.386-0.601,0.518c0.12,0.084,0.35,0.2,0.572,0.283
				c0.071,0.026,0.122,0.089,0.133,0.164c0.011,0.075-0.018,0.15-0.077,0.196L154.296,89.817z"/>
			<path fill="#751C08" d="M169.114,83.881c0.96-1.666,1.154-2.876,1.193-3.352c-0.765,0.314-1.609,0.593-2.512,0.811
				c-0.006,1.304-0.547,2.581-0.919,3.309c0.193-0.165,0.419-0.293,0.662-0.367c0.251,0.352,0.258,0.806,0.171,1.24
				C168.272,85.016,168.78,84.462,169.114,83.881z"/>
			<path fill="#751C08" d="M169.794,88.224c-0.016-0.037-0.062-0.045-0.096-0.039c-0.279,0.047-0.509,0.393-0.719,0.567
				c-0.277,0.229-0.586,0.446-0.884,0.647c-0.088,0.059-0.03,0.179,0.069,0.163c0.427-0.068,0.782-0.295,1.124-0.549
				C169.518,88.842,169.935,88.556,169.794,88.224z"/>
			<path fill="#751C08" d="M170.557,87.411c-0.184-0.001-0.37,0.142-0.428,0.316c-0.035,0.104,0.105,0.176,0.178,0.104
				c0.108-0.107,0.226-0.19,0.306-0.322C170.64,87.467,170.606,87.411,170.557,87.411z"/>
			<path fill="#751C08" d="M160.722,85.761c-0.193,0.045-0.342,0.204-0.506,0.308c-0.188,0.119-0.394,0.239-0.609,0.301
				c-0.092,0.027-0.077,0.179,0.023,0.171c0.244-0.019,0.446-0.078,0.669-0.181c0.205-0.095,0.47-0.256,0.535-0.487
				C160.854,85.804,160.789,85.745,160.722,85.761z"/>
			<path fill="#751C08" d="M161.612,84.807c-0.176,0.054-0.285,0.158-0.408,0.29c-0.124,0.134,0.072,0.332,0.2,0.2
				c0.125-0.129,0.227-0.238,0.29-0.408C161.713,84.842,161.658,84.793,161.612,84.807z"/>
			<path fill="#751C08" d="M167.094,85.221c-0.073,0.093-0.149,0.185-0.225,0.275c-0.073,0.087-0.168,0.172-0.185,0.289
				c-0.006,0.044,0.027,0.095,0.078,0.078c0.114-0.038,0.176-0.134,0.25-0.224c0.081-0.098,0.159-0.198,0.236-0.299
				C167.315,85.252,167.162,85.134,167.094,85.221z"/>
			<path fill="#D4412E" d="M168.093,86.415c-0.362,0.039-0.637,0.361-0.908,0.581c-0.392,0.318-0.812,0.584-1.259,0.818
				c-0.15,0.078-0.046,0.32,0.114,0.271c0.469-0.143,0.884-0.393,1.277-0.683c0.308-0.227,0.755-0.49,0.858-0.878
				C168.188,86.473,168.149,86.409,168.093,86.415z"/>
			<path fill="#D4412E" d="M169.023,85.412c-0.266,0.009-0.478,0.289-0.584,0.507c-0.062,0.127,0.061,0.248,0.188,0.188
				c0.217-0.104,0.508-0.315,0.507-0.584C169.134,85.464,169.084,85.41,169.023,85.412z"/>
			<path fill="#D4412E" d="M158.256,86.052c-0.442-0.155-0.963-0.06-1.428-0.152c-0.415-0.082-0.781-0.235-1.206-0.131
				c-0.032,0.008-0.035,0.062,0,0.067c0.842,0.127,1.77,0.674,2.634,0.368C158.331,86.177,158.331,86.078,158.256,86.052z"/>
			<path fill="#D4412E" d="M159.52,85.727c-0.095-0.1-0.252-0.069-0.371-0.03c-0.154,0.051-0.324,0.102-0.457,0.197
				c-0.088,0.063-0.058,0.197,0.055,0.203c0.147,0.008,0.299-0.03,0.442-0.058c0.138-0.027,0.31-0.057,0.358-0.209
				C159.559,85.794,159.546,85.754,159.52,85.727z"/>
			<path fill="#D4412E" d="M163.447,82.893c-0.023-0.109-0.211-0.086-0.197,0.027c0.082,0.655,0.085,1.298,0.111,1.956
				c0.021,0.524-0.035,1.048,0.187,1.533c0.028,0.061,0.134,0.062,0.162,0C164.163,85.394,163.666,83.925,163.447,82.893z"/>
			<path fill="#D4412E" d="M163.96,87.33c-0.006-0.141-0.019-0.301-0.084-0.428c-0.042-0.081-0.173-0.081-0.215,0
				c-0.059,0.115-0.063,0.24-0.08,0.367c-0.02,0.151-0.029,0.327,0.017,0.472c0.053,0.168,0.286,0.168,0.34,0
				C163.981,87.607,163.966,87.468,163.96,87.33z"/>
			<path fill="#A85733" d="M167.626,66.756c-0.214-0.121-0.583-0.023-0.729,0.168c-0.036,0.047,0.001,0.127,0.056,0.138
				c0.112,0.022,0.228,0.003,0.339-0.019c0.13-0.025,0.259-0.048,0.352-0.15C167.681,66.852,167.676,66.785,167.626,66.756z"/>
			<path fill="#A85733" d="M168.37,66.879c-0.135-0.149-0.36-0.066-0.514,0.005c-0.108,0.05-0.028,0.206,0.077,0.183
				c0.137-0.029,0.306,0,0.424-0.089C168.391,66.954,168.4,66.912,168.37,66.879z"/>
			<path fill="#A85733" d="M156.746,67.67c-0.074-0.072-0.184-0.084-0.275-0.131c-0.111-0.057-0.208,0.114-0.097,0.166
				c0.115,0.054,0.237,0.117,0.359,0.065C156.771,67.753,156.772,67.696,156.746,67.67z"/>
			<path fill="#A85733" d="M157.057,67.452c-0.09-0.108-0.263,0.064-0.154,0.154c0.058,0.048,0.092,0.086,0.17,0.086
				c0.038,0,0.069-0.031,0.07-0.07C157.144,67.544,157.106,67.51,157.057,67.452z"/>
		</g>
	</g>
	<path fill="none" stroke="#13110C" stroke-width="6" d="M185.608,93.131c0-9.027-9.754-15.581-18.487-15.581
		c-8.732,0-18.476,6.668-18.476,15.581"/>
</g>
</svg>
